<svg xmlns="http://www.w3.org/2000/svg" width="24.067" height="31.222" viewBox="0 0 24.067 31.222">
  <g id="home_4_" data-name="home (4)" transform="translate(0)">
    <path id="Path_729" data-name="Path 729" d="M70.7,0A12.047,12.047,0,0,0,58.67,12.033c0,3.732,1.931,8.067,5.739,12.883a51.3,51.3,0,0,0,5.649,6.062.977.977,0,0,0,1.292,0A51.3,51.3,0,0,0,77,24.916c3.808-4.816,5.739-9.151,5.739-12.883A12.047,12.047,0,0,0,70.7,0ZM65.337,17.075V12.89a.3.3,0,0,0-.5-.231l-.325.279a.976.976,0,0,1-1.27-1.482L70.069,5.6a.976.976,0,0,1,1.27,0l6.83,5.854a.976.976,0,1,1-1.27,1.482l-.325-.279a.3.3,0,0,0-.5.231v4.185a.976.976,0,0,1-.976.976H66.313A.976.976,0,0,1,65.337,17.075Z" transform="translate(-58.67)" fill="#666769"/>
    <path id="Path_730" data-name="Path 730" d="M200,129.627v5.1a.3.3,0,0,0,.3.3h6.22a.3.3,0,0,0,.3-.3v-5.1a.3.3,0,0,0-.106-.231l-3.11-2.666a.3.3,0,0,0-.4,0l-3.11,2.666A.3.3,0,0,0,200,129.627Z" transform="translate(-191.382 -118.933)" fill="#063e6e"/>
    <path id="Path_820" data-name="Path 820" d="M200,129.627v5.1a.3.3,0,0,0,.3.3h6.22a.3.3,0,0,0,.3-.3v-5.1a.3.3,0,0,0-.106-.231l-3.11-2.666a.3.3,0,0,0-.4,0l-3.11,2.666A.3.3,0,0,0,200,129.627Z" transform="translate(-191.381 -118.933)" fill="#fff"/>
  </g>
</svg>
