<svg xmlns="http://www.w3.org/2000/svg" width="16.668" height="22.207" viewBox="0 0 16.668 22.207">
  <g id="pin_2_" data-name="pin (2)" transform="translate(-47.58 0.5)">
    <g id="Group_2780" data-name="Group 2780" transform="translate(48.08)">
      <g id="Group_2779" data-name="Group 2779">
        <path id="Path_816" data-name="Path 816" d="M55.914,0A7.843,7.843,0,0,0,48.08,7.834a9.038,9.038,0,0,0,.664,3.016,12.633,12.633,0,0,0,.905,1.693l5.371,8.138a1.022,1.022,0,0,0,1.785,0l5.372-8.139a12.581,12.581,0,0,0,.906-1.693,9.036,9.036,0,0,0,.664-3.016A7.843,7.843,0,0,0,55.914,0Zm6.32,10.492a11.577,11.577,0,0,1-.825,1.544l-5.372,8.139c-.106.161-.14.161-.246,0L50.42,12.036a11.581,11.581,0,0,1-.825-1.544A8.2,8.2,0,0,1,49,7.834a6.912,6.912,0,1,1,13.824,0A8.211,8.211,0,0,1,62.234,10.492Z" transform="translate(-48.08 0)" fill="#838181" stroke="#707070" stroke-width="1"/>
        <path id="Path_817" data-name="Path 817" d="M116.227,64.008a4.147,4.147,0,1,0,4.147,4.147A4.152,4.152,0,0,0,116.227,64.008Zm0,7.373a3.226,3.226,0,1,1,3.226-3.226A3.23,3.23,0,0,1,116.227,71.381Z" transform="translate(-108.393 -60.321)" fill="#838181" stroke="#707070" stroke-width="1"/>
      </g>
    </g>
  </g>
</svg>
