<svg xmlns="http://www.w3.org/2000/svg" width="21.999" height="23.418" viewBox="0 0 21.999 23.418">
  <g id="logout_1_" data-name="logout (1)" transform="translate(-10)">
    <path id="Path_9" data-name="Path 9" d="M82.464,80.311a1.064,1.064,0,1,0-1.505,1.505l3.15,3.151H71.066a1.064,1.064,0,0,0,0,2.129H84.109l-3.15,3.15a1.064,1.064,0,0,0,1.505,1.505l4.967-4.967a1.064,1.064,0,0,0,0-1.505Z" transform="translate(-55.744 -74.322)" fill="#666769"/>
    <path id="Path_10" data-name="Path 10" d="M20.29,23.418a1.064,1.064,0,0,0,0-2.129H12.129V2.129H20.29A1.064,1.064,0,0,0,20.29,0H11.064A1.064,1.064,0,0,0,10,1.064V22.354a1.064,1.064,0,0,0,1.064,1.064Z" fill="#666769"/>
  </g>
</svg>
