<svg xmlns="http://www.w3.org/2000/svg" width="21.339" height="21.339" viewBox="0 0 21.339 21.339">
  <path id="market" d="M21.339,5.668V5.5L18.97,0H2.367L0,5.539V5.71A2.711,2.711,0,0,0,.828,7.671a2.783,2.783,0,0,0,.839.559v6.441H0v5H1.667v1.667H3.334V19.672H18v1.667h1.667V19.672h1.667v-5H19.672V8.223A2.8,2.8,0,0,0,21.339,5.668Zm-17.871-4H17.873l1.789,4.15a1.125,1.125,0,0,1-2.241-.149V4.793H15.754v.875a1.125,1.125,0,0,1-2.251,0V4.793H11.837v.834a1.167,1.167,0,0,1-2.334,0V4.793H7.835v.875a1.125,1.125,0,0,1-2.251,0V4.793H3.918v.875A1.127,1.127,0,0,1,2.792,6.794a1.1,1.1,0,0,1-1.115-.936ZM19.672,18h-18V16.338h18ZM15.5,14.671H3.334V8.408a2.789,2.789,0,0,0,1.417-.751,2.788,2.788,0,0,0,3.93-.012,2.829,2.829,0,0,0,3.976,0,2.788,2.788,0,0,0,3.93.012A2.789,2.789,0,0,0,18,8.408v6.263Zm-7.627,0a.834.834,0,1,1,.834-.834A.833.833,0,0,1,7.877,14.671Zm-2.084,0a.834.834,0,1,1,.834-.834A.833.833,0,0,1,5.793,14.671Zm4.168,0a.834.834,0,1,1,.834-.834A.833.833,0,0,1,9.961,14.671Zm-.208-2.542a.834.834,0,1,1-.834-.834A.833.833,0,0,1,9.753,12.128Zm-2.126,0a.834.834,0,1,1-.834-.834A.833.833,0,0,1,7.627,12.128Zm5.793,2.542a.834.834,0,1,1,.834-.834A.833.833,0,0,1,13.42,14.671Zm2.084,0a.834.834,0,1,1,.834-.834A.833.833,0,0,1,15.5,14.671ZM15.3,12.128a.834.834,0,1,1-.834-.834A.833.833,0,0,1,15.3,12.128Zm-7.419-.875a.834.834,0,1,1,.834-.834A.833.833,0,0,1,7.877,11.253Zm0,0" fill="#838181"/>
</svg>
