<svg xmlns="http://www.w3.org/2000/svg" width="19.196" height="24.265" viewBox="0 0 19.196 24.265">
  <path id="medical-report" d="M1.277,2.566H4.342V4.176H2.566a1.091,1.091,0,0,0-1.08,1.078v16.33a1.088,1.088,0,0,0,1.08,1.078H16.642a1.082,1.082,0,0,0,1.078-1.078V5.246a1.088,1.088,0,0,0-1.078-1.078H14.866v-1.6h3.053A1.283,1.283,0,0,1,19.2,3.843V22.988a1.285,1.285,0,0,1-1.277,1.277H1.277A1.283,1.283,0,0,1,0,22.976V3.831A1.281,1.281,0,0,1,1.277,2.566ZM3.75,6.847H8.2v.888H3.75Zm0,2.39H6.671v.888H3.75Zm9.586-3.022H14.2a.294.294,0,0,1,.294.3v1.1h1.1a.294.294,0,0,1,.29.286v.864a.3.3,0,0,1-.29.294h-1.1v1.072a.294.294,0,0,1-.294.292h-.863a.294.294,0,0,1-.294-.292V9.053h-1.1a.292.292,0,0,1-.292-.292V7.895a.292.292,0,0,1,.292-.292h1.1V6.513a.294.294,0,0,1,.294-.294ZM3.75,19.636h9.316v.89H3.75v-.888Zm0-2.678H15.888v.888H3.75Zm0-3.065H6.955L7.8,12.724l1.03,1.486,1.129-2.2,1.218,2.382.553-.407.263-.089H15.88v.888H12.13l-1.275.941-.9-1.776L8.937,15.92,7.78,14.254l-.377.523H3.75v-.888ZM6.118,1.776H7.565A1.974,1.974,0,0,1,9.474,0,1.974,1.974,0,0,1,11.39,1.763l1.7.014a.213.213,0,0,1,.213.213V4.04a.213.213,0,0,1-.213.213H6.118a.213.213,0,0,1-.213-.213V2a.209.209,0,0,1,.213-.221Zm2.566.874A1.409,1.409,0,0,0,9.2,3.1a.947.947,0,0,0,.5,0,1.405,1.405,0,0,0,.6-.641,1.2,1.2,0,0,0,.02-.213.864.864,0,1,0-1.725,0,.987.987,0,0,0,.081.395Z" transform="translate(0)" fill="#838181" fill-rule="evenodd"/>
</svg>
