<svg xmlns="http://www.w3.org/2000/svg" width="168.845" height="149.984" viewBox="0 0 168.845 149.984">
  <g id="medicines" transform="translate(0 -0.006)">
    <path id="Path_846" data-name="Path 846" d="M127.067,33.5A22.576,22.576,0,0,1,94.93,65.1Z" transform="translate(36.23 12.783)" fill="#769e49" fill-rule="evenodd"/>
    <path id="Path_847" data-name="Path 847" d="M90.259,44.622a22.59,22.59,0,0,1,36.282-11.5L94.487,64.587A22.6,22.6,0,0,1,90.259,44.622Z" transform="translate(34.158 10.641)" fill="#769e49" fill-rule="evenodd"/>
    <path id="Path_848" data-name="Path 848" d="M75.312,92.622a22.59,22.59,0,0,1,36.282-11.5l-32.04,31.5A22.548,22.548,0,0,1,75.312,92.622Z" transform="translate(28.449 28.96)" fill="#769e49" fill-rule="evenodd"/>
    <path id="Path_849" data-name="Path 849" d="M55.383,16.495A22.327,22.327,0,0,1,82.656.758h0A22.327,22.327,0,0,1,98.393,28.031C94.912,41.046,91.485,53.992,87.92,66.952L67.969,61.605V53.4a13.056,13.056,0,0,0-3.813-9.188h0a13.1,13.1,0,0,0-9.243-3.841h-5.8q3.15-11.855,6.342-23.778Z" transform="translate(18.743)" fill="#769e49" fill-rule="evenodd"/>
    <path id="Path_850" data-name="Path 850" d="M61.734,5.837A22.4,22.4,0,0,1,72.152.38L60.118,41.3a13,13,0,0,0-5.278-1.119H49.12l7.516-25.45h0a21.8,21.8,0,0,1,5.1-8.843Z" transform="translate(18.746 0.143)" fill="#769e49" fill-rule="evenodd"/>
    <path id="Path_851" data-name="Path 851" d="M88.7,53.783q-4.628,17.132-9.2,34.21h0A22.231,22.231,0,0,1,52.35,103.66h0A22.231,22.231,0,0,1,37,88.877a13.305,13.305,0,0,0,4.435-2.915h0A13.1,13.1,0,0,0,45.29,76.7V62.543H59.466a13.057,13.057,0,0,0,9.312-3.855h0A13.126,13.126,0,0,0,72.633,49.5Z" transform="translate(14.121 18.889)" fill="#769e49" fill-rule="evenodd"/>
    <path id="Path_852" data-name="Path 852" d="M37.47,85.012a13.043,13.043,0,0,0,3.758-2.625h0A13.1,13.1,0,0,0,45.111,73.1V58.94h7.668L42.472,93.951a21.706,21.706,0,0,1-5-8.939Z" transform="translate(14.3 22.492)" fill="#769e49" fill-rule="evenodd"/>
    <path id="Path_853" data-name="Path 853" d="M112.109,81.57A22.576,22.576,0,0,1,80,113.168l32.137-31.6Z" transform="translate(30.532 31.129)" fill="#769e49" fill-rule="evenodd"/>
    <path id="Path_854" data-name="Path 854" d="M28.709,15.93H46.492A5.236,5.236,0,0,1,51.7,21.139V41.863H72.426a5.223,5.223,0,0,1,5.209,5.195V62.422a5.236,5.236,0,0,1-5.209,5.209H51.7V88.356a5.236,5.236,0,0,1-5.209,5.209H31.184a5.236,5.236,0,0,1-5.209-5.209V67.631H5.25A5.236,5.236,0,0,1,0,62.422V47.114A5.236,5.236,0,0,1,5.209,41.9H25.933V21.18c.008-2.868-.148-5.194,2.72-5.209Z" transform="translate(0 6.077)" fill="#d4721b" fill-rule="evenodd"/>
  </g>
</svg>
