<svg xmlns="http://www.w3.org/2000/svg" xmlns:xlink="http://www.w3.org/1999/xlink" width="37.918" height="36.067" viewBox="0 0 37.918 36.067">
  <defs>
    <filter id="Path_1" x="0" y="0" width="37.918" height="36.067" filterUnits="userSpaceOnUse">
      <feOffset dy="3" input="SourceAlpha"/>
      <feGaussianBlur stdDeviation="3" result="blur"/>
      <feFlood flood-opacity="0.161"/>
      <feComposite operator="in" in2="blur"/>
      <feComposite in="SourceGraphic"/>
    </filter>
  </defs>
  <g transform="matrix(1, 0, 0, 1, 0, 0)" filter="url(#Path_1)">
    <path id="Path_1-2" data-name="Path 1" d="M18.754,15.808H12.5a2.4,2.4,0,0,1-2.5,2.258,2.4,2.4,0,0,1-2.5-2.258H1.236a1.187,1.187,0,0,1-1.126-.79,1.131,1.131,0,0,1,.375-1.242,4.413,4.413,0,0,0,2-3.613V6.775C2.487,3.049,5.865,0,9.995,0S17.5,3.049,17.5,6.775v3.387a4.413,4.413,0,0,0,2,3.613,1.006,1.006,0,0,1,.375,1.242A1.187,1.187,0,0,1,18.754,15.808Z" transform="translate(8.94 6)" fill="#769e49" fill-rule="evenodd"/>
  </g>
</svg>
