<svg xmlns="http://www.w3.org/2000/svg" width="238.833" height="204.228" viewBox="0 0 238.833 204.228">
  <g id="_785_Converted_" data-name="785 [Converted]" transform="translate(-201.686 -335.84)">
    <g id="BACKGROUND" transform="translate(438.707 535.666)">
      <rect id="Rectangle_1649" data-name="Rectangle 1649" width="1.19" height="1.19" transform="translate(0 0)" fill="#fff"/>
    </g>
    <g id="OBJECT" transform="translate(201.686 335.84)">
      <g id="Group_8139" data-name="Group 8139">
        <path id="Path_877" data-name="Path 877" d="M311.2,534.741c-51.712-.349-100.892-16.457-105.437-62.086S220.706,350.24,275.751,350.24s60.127,18.48,95.293,20.21,71.471,6.337,72.858,56.137S424.615,535.507,311.2,534.741Z" transform="translate(-205.132 -350.24)" fill="#c5dbb2"/>
        <g id="Group_8069" data-name="Group 8069" transform="translate(0.635 22.411)">
          <g id="XMLID_115_">
            <g id="Group_8048" data-name="Group 8048">
              <path id="Path_878" data-name="Path 878" d="M287.584,592.56A12.648,12.648,0,0,1,299.87,603.7L310.193,703a9.845,9.845,0,0,1-9.973,11.129H232.031A12.65,12.65,0,0,1,219.739,703L209.416,603.7a9.854,9.854,0,0,1,9.977-11.135Z" transform="translate(-209.356 -578.565)"/>
              <g id="Group_8046" data-name="Group 8046" transform="translate(6.403 13.771)">
                <path id="Path_879" data-name="Path 879" d="M331.7,592.56A12.648,12.648,0,0,1,343.989,603.7L354.311,703a9.845,9.845,0,0,1-9.973,11.129H276.151A12.65,12.65,0,0,1,263.859,703L253.536,603.7a9.854,9.854,0,0,1,9.977-11.135Z" transform="translate(-253.25 -592.336)" fill="#769e49"/>
                <path id="Path_880" data-name="Path 880" d="M343.064,713.091H274.875a12.9,12.9,0,0,1-12.516-11.331l-10.323-99.307a10.285,10.285,0,0,1,2.519-8.069,10.177,10.177,0,0,1,7.682-3.314h68.189c6.248,0,11.861,5.085,13.09,11.661l10.323,99.307a13.413,13.413,0,0,1-3.095,7.742A10.177,10.177,0,0,1,343.064,713.091ZM262.237,591.519a9.731,9.731,0,0,0-7.348,3.166,9.837,9.837,0,0,0-2.405,7.721l10.323,99.307a12.433,12.433,0,0,0,12.067,10.927h68.189a9.726,9.726,0,0,0,7.345-3.164,9.834,9.834,0,0,0,2.4-7.718L342.488,602.45a12.434,12.434,0,0,0-12.062-10.933H262.237Z" transform="translate(-251.974 -591.07)"/>
              </g>
              <g id="Group_8047" data-name="Group 8047" transform="translate(15.195 18.658)">
                <path id="Path_881" data-name="Path 881" d="M382.7,625.1l11.266,108.386H332.532a10.1,10.1,0,0,1-10.046-9.056L312.16,625.1Z" transform="translate(-311.911 -624.875)" fill="#fff"/>
                <path id="Path_882" data-name="Path 882" d="M392.806,732.436H331.121a10.3,10.3,0,0,1-10.27-9.257L310.5,623.6h70.994l.021.2ZM311,624.051l10.3,99.08a9.851,9.851,0,0,0,9.822,8.853h61.185l-11.22-107.934Z" transform="translate(-310.5 -623.6)"/>
              </g>
              <path id="Path_883" data-name="Path 883" d="M537.06,572.77h2.434a4.276,4.276,0,0,1-1.2.164A4.647,4.647,0,0,1,537.06,572.77Z" transform="translate(-487.827 -561.749)" fill="#171c51"/>
              <path id="Path_884" data-name="Path 884" d="M424.04,513.4a7.342,7.342,0,0,0-5.634-2.973H403.275a5.968,5.968,0,0,0,1.312-4.474,7.449,7.449,0,0,0-7.228-6.547,5.8,5.8,0,0,0-5.861,6.547,7.318,7.318,0,0,0,2.24,4.474h-15.13a5.75,5.75,0,0,0-5.015,2.973,7.812,7.812,0,0,0-.967,4.806l.009.081.254,2.444h53.383l-.254-2.444-.009-.081A9.279,9.279,0,0,0,424.04,513.4ZM397.757,503.23a3.1,3.1,0,0,1,3.011,2.728,2.414,2.414,0,0,1-1.755,2.635,2.725,2.725,0,0,1-1.4,0l-.018,0a3.117,3.117,0,0,1-2.279-2.631A2.414,2.414,0,0,1,397.757,503.23Z" transform="translate(-348.055 -499.41)"/>
            </g>
            <g id="Group_8051" data-name="Group 8051" transform="translate(28.726 36.406)">
              <g id="Group_8049" data-name="Group 8049">
                <path id="Path_885" data-name="Path 885" d="M450.094,762.808h-45.84L402.22,743.24h45.84Z" transform="translate(-401.971 -743.015)" fill="#fff"/>
                <path id="Path_886" data-name="Path 886" d="M448.933,761.759H402.641L400.56,741.74h46.292Zm-45.886-.451h45.386l-1.988-19.117H401.059Z" transform="translate(-400.56 -741.74)"/>
              </g>
              <path id="Path_887" data-name="Path 887" d="M534.64,777.41H507.572a.744.744,0,0,1-.723-.655h0a.579.579,0,0,1,.586-.655H534.5a.743.743,0,0,1,.723.655h0A.579.579,0,0,1,534.64,777.41Z" transform="translate(-490.878 -770.938)"/>
              <path id="Path_888" data-name="Path 888" d="M536.63,796.57H509.562a.743.743,0,0,1-.723-.655h0a.579.579,0,0,1,.586-.655h27.068a.743.743,0,0,1,.722.655h0A.579.579,0,0,1,536.63,796.57Z" transform="translate(-492.569 -787.219)"/>
              <path id="Path_889" data-name="Path 889" d="M538.629,815.74H511.562a.743.743,0,0,1-.723-.655h0a.579.579,0,0,1,.586-.655h27.068a.743.743,0,0,1,.723.655h0A.58.58,0,0,1,538.629,815.74Z" transform="translate(-494.269 -803.51)"/>
              <path id="Path_890" data-name="Path 890" d="M540.62,834.9H513.552a.743.743,0,0,1-.723-.655h0a.579.579,0,0,1,.586-.655h27.068a.743.743,0,0,1,.723.655h0A.579.579,0,0,1,540.62,834.9Z" transform="translate(-495.96 -819.791)"/>
              <g id="Group_8050" data-name="Group 8050" transform="translate(2.865 4.022)">
                <path id="Path_891" data-name="Path 891" d="M432.826,774.332H428.5l-.449-4.322h-2.882l.449,4.322H421.3l.3,2.881h4.322l.449,4.322h2.882l-.449-4.322h4.322Z" transform="translate(-421.049 -769.785)" fill="#d4721b"/>
                <path id="Path_892" data-name="Path 892" d="M428.084,780.487h-3.335l-.449-4.322h-4.322l-.347-3.332h4.322l-.449-4.322h3.335l.449,4.322h4.322l.347,3.332h-4.324Zm-2.93-.451h2.429l-.449-4.322h4.322l-.252-2.431h-4.322l-.449-4.322H424l.449,4.322h-4.322l.252,2.431h4.322Z" transform="translate(-419.63 -768.51)" fill="#d4721b"/>
              </g>
            </g>
          </g>
          <g id="Group_8052" data-name="Group 8052" transform="translate(33.58 26.366)">
            <path id="Path_893" data-name="Path 893" d="M437.116,681.3l-1.271-1.6h-1.22l.165,1.6h-1.325l-.595-5.729h2.479a3.353,3.353,0,0,1,1.348.254,2.29,2.29,0,0,1,.939.72,2.162,2.162,0,0,1,.418,1.1,1.827,1.827,0,0,1-.192,1.1,1.679,1.679,0,0,1-.8.708l1.477,1.842Zm-.792-4.391a1.511,1.511,0,0,0-.935-.258h-1.08l.207,2h1.08a1.27,1.27,0,0,0,.882-.261.826.826,0,0,0,.234-.736A1.029,1.029,0,0,0,436.324,676.907Z" transform="translate(-432.87 -675.471)"/>
            <path id="Path_894" data-name="Path 894" d="M477.829,680.235l.111,1.064H473.5l-.595-5.729h4.328l.111,1.064h-3.011l.129,1.244h2.659l.107,1.031h-2.659l.138,1.325h3.116Z" transform="translate(-466.895 -675.471)"/>
            <path id="Path_895" data-name="Path 895" d="M510.612,680.455a3.3,3.3,0,0,1-1.223-1.056,3.17,3.17,0,0,1-.563-1.526,2.732,2.732,0,0,1,.246-1.526,2.441,2.441,0,0,1,1-1.056,3.081,3.081,0,0,1,1.552-.38,3.545,3.545,0,0,1,1.373.261,3.111,3.111,0,0,1,1.089.753l-.769.786a2.043,2.043,0,0,0-1.51-.672,1.79,1.79,0,0,0-.926.233,1.425,1.425,0,0,0-.583.65,1.819,1.819,0,0,0-.135.95,2.085,2.085,0,0,0,.332.95,1.93,1.93,0,0,0,.718.651,2.062,2.062,0,0,0,.974.233,1.63,1.63,0,0,0,1.37-.679l.933.786a2.3,2.3,0,0,1-.936.762,3.182,3.182,0,0,1-1.324.261A3.5,3.5,0,0,1,510.612,680.455Z" transform="translate(-497.399 -674.91)"/>
            <path id="Path_896" data-name="Path 896" d="M549.27,675.57h1.325l.595,5.729h-1.325Z" transform="translate(-531.782 -675.471)"/>
            <path id="Path_897" data-name="Path 897" d="M570.975,675.815a2.29,2.29,0,0,1,.939.72,2.163,2.163,0,0,1,.418,1.1,1.874,1.874,0,0,1-.188,1.1,1.657,1.657,0,0,1-.789.72,3.041,3.041,0,0,1-1.3.249h-1.154l.164,1.579h-1.325l-.595-5.728h2.479A3.373,3.373,0,0,1,570.975,675.815Zm-.221,2.557a.816.816,0,0,0,.234-.733,1.015,1.015,0,0,0-.388-.741,1.511,1.511,0,0,0-.934-.258h-1.08l.207,1.989h1.08A1.284,1.284,0,0,0,570.754,678.372Z" transform="translate(-546.976 -675.462)"/>
            <path id="Path_898" data-name="Path 898" d="M611.389,680.235l.111,1.064h-4.435l-.595-5.729H610.8l.111,1.064H607.9l.129,1.244h2.659l.107,1.031h-2.659l.138,1.325h3.116Z" transform="translate(-580.389 -675.471)"/>
            <path id="Path_899" data-name="Path 899" d="M643.21,680.652a3.46,3.46,0,0,1-1.068-.479l.345-1a3.654,3.654,0,0,0,1.953.6,1.513,1.513,0,0,0,.817-.168.449.449,0,0,0,.224-.446.478.478,0,0,0-.2-.34,1.362,1.362,0,0,0-.431-.216q-.259-.081-.694-.18a10.042,10.042,0,0,1-1.1-.311,2.012,2.012,0,0,1-.768-.5,1.629,1.629,0,0,1-.218-1.821,1.568,1.568,0,0,1,.748-.643,3.154,3.154,0,0,1,1.306-.237,4.6,4.6,0,0,1,1.086.131,3.521,3.521,0,0,1,.956.377l-.305,1.007a3.452,3.452,0,0,0-1.635-.451,1.391,1.391,0,0,0-.8.18.489.489,0,0,0-.216.475.528.528,0,0,0,.353.437,5.218,5.218,0,0,0,.966.282,10.054,10.054,0,0,1,1.1.311,2.048,2.048,0,0,1,.768.491,1.592,1.592,0,0,1,.213,1.8,1.594,1.594,0,0,1-.756.643,3.179,3.179,0,0,1-1.308.237A4.939,4.939,0,0,1,643.21,680.652Z" transform="translate(-610.484 -674.91)"/>
          </g>
          <g id="Group_8056" data-name="Group 8056" transform="translate(25.227 59.726)">
            <g id="Group_8053" data-name="Group 8053" transform="translate(13.821 2.58)">
              <path id="Path_900" data-name="Path 900" d="M515.055,916.546H470.536a1.3,1.3,0,0,1-1.25-1.154l-.012-.108a1.01,1.01,0,0,1,1.01-1.154H514.8a1.3,1.3,0,0,1,1.25,1.154l.012.108A1.011,1.011,0,0,1,515.055,916.546Z" transform="translate(-469.267 -914.13)"/>
              <path id="Path_901" data-name="Path 901" d="M511.519,951.907H474.1a1.191,1.191,0,0,1-1.148-1.061l-.032-.3a.928.928,0,0,1,.927-1.061h37.425a1.191,1.191,0,0,1,1.148,1.061l.031.3A.929.929,0,0,1,511.519,951.907Z" transform="translate(-472.362 -944.178)"/>
            </g>
            <g id="Group_8054" data-name="Group 8054" transform="translate(0 1.336)">
              <path id="Path_902" data-name="Path 902" d="M385.052,914.929h-5.258a1.994,1.994,0,0,1-1.95-1.785l-.56-5.37a1.763,1.763,0,0,1,.431-1.367,1.692,1.692,0,0,1,1.272-.557h5.258a1.994,1.994,0,0,1,1.95,1.785l.56,5.369a1.763,1.763,0,0,1-.431,1.367A1.687,1.687,0,0,1,385.052,914.929Zm-6.063-7.729a.354.354,0,0,0-.269.111.407.407,0,0,0-.09.322l.56,5.369a.656.656,0,0,0,.605.574h5.258a.355.355,0,0,0,.269-.111.408.408,0,0,0,.09-.323l-.56-5.369a.656.656,0,0,0-.605-.574h-5.258Z" transform="translate(-377.273 -905.85)"/>
            </g>
            <g id="Group_8055" data-name="Group 8055" transform="translate(2.895)">
              <path id="Path_903" data-name="Path 903" d="M398.624,905.48l-2.084-2.09,1.118-1.113.807.81,4.671-6.127,1.254.957Z" transform="translate(-396.54 -896.96)" fill="#769e49"/>
            </g>
          </g>
          <g id="Group_8060" data-name="Group 8060" transform="translate(26.566 72.597)">
            <g id="Group_8057" data-name="Group 8057" transform="translate(13.821 2.581)">
              <path id="Path_904" data-name="Path 904" d="M523.965,1002.226H479.446a1.3,1.3,0,0,1-1.25-1.154l-.012-.108a1.01,1.01,0,0,1,1.01-1.154h44.519a1.3,1.3,0,0,1,1.25,1.154l.012.108A1.011,1.011,0,0,1,523.965,1002.226Z" transform="translate(-478.177 -999.81)"/>
              <path id="Path_905" data-name="Path 905" d="M520.42,1037.577H483a1.191,1.191,0,0,1-1.148-1.061l-.032-.3a.928.928,0,0,1,.927-1.061h37.425a1.191,1.191,0,0,1,1.148,1.061l.032.3A.928.928,0,0,1,520.42,1037.577Z" transform="translate(-481.264 -1029.849)"/>
            </g>
            <g id="Group_8058" data-name="Group 8058" transform="translate(0 1.334)">
              <path id="Path_906" data-name="Path 906" d="M393.962,1000.59H388.7a1.994,1.994,0,0,1-1.95-1.785l-.56-5.369a1.769,1.769,0,0,1,.431-1.369,1.692,1.692,0,0,1,1.273-.557h5.258a1.994,1.994,0,0,1,1.95,1.785l.56,5.37a1.763,1.763,0,0,1-.431,1.367A1.684,1.684,0,0,1,393.962,1000.59Zm-6.065-7.728a.354.354,0,0,0-.269.111.415.415,0,0,0-.092.323l.56,5.369a.656.656,0,0,0,.605.574h5.258a.35.35,0,0,0,.269-.111.407.407,0,0,0,.09-.321l-.56-5.37a.656.656,0,0,0-.605-.574H387.9Z" transform="translate(-386.183 -991.51)"/>
            </g>
            <g id="Group_8059" data-name="Group 8059" transform="translate(2.895)">
              <path id="Path_907" data-name="Path 907" d="M407.532,991.15l-2.082-2.088,1.116-1.113.807.808,4.671-6.126,1.254.957Z" transform="translate(-405.45 -982.63)" fill="#769e49"/>
            </g>
          </g>
          <g id="Group_8064" data-name="Group 8064" transform="translate(27.931 85.73)">
            <g id="Group_8061" data-name="Group 8061" transform="translate(13.821 2.58)">
              <path id="Path_908" data-name="Path 908" d="M533.055,1089.636H488.535a1.3,1.3,0,0,1-1.25-1.154l-.012-.108a1.01,1.01,0,0,1,1.01-1.154H532.8a1.3,1.3,0,0,1,1.25,1.154l.012.108A1.011,1.011,0,0,1,533.055,1089.636Z" transform="translate(-487.267 -1087.22)"/>
              <path id="Path_909" data-name="Path 909" d="M529.51,1125H492.085a1.191,1.191,0,0,1-1.148-1.061l-.032-.3a.928.928,0,0,1,.927-1.061h37.425a1.191,1.191,0,0,1,1.148,1.061l.032.3A.929.929,0,0,1,529.51,1125Z" transform="translate(-490.354 -1117.267)"/>
            </g>
            <g id="Group_8062" data-name="Group 8062" transform="translate(0 1.334)">
              <path id="Path_910" data-name="Path 910" d="M403.052,1088.01h-5.258a1.994,1.994,0,0,1-1.95-1.785l-.56-5.369a1.77,1.77,0,0,1,.431-1.369,1.692,1.692,0,0,1,1.273-.557h5.258a1.994,1.994,0,0,1,1.95,1.785l.56,5.369a1.764,1.764,0,0,1-.431,1.367A1.689,1.689,0,0,1,403.052,1088.01Zm-6.065-7.728a.35.35,0,0,0-.269.111.408.408,0,0,0-.09.323l.56,5.369a.656.656,0,0,0,.605.574h5.258a.349.349,0,0,0,.269-.111.408.408,0,0,0,.09-.323l-.56-5.369a.656.656,0,0,0-.605-.574Z" transform="translate(-395.273 -1078.93)"/>
            </g>
            <g id="Group_8063" data-name="Group 8063" transform="translate(2.893)">
              <path id="Path_911" data-name="Path 911" d="M416.614,1078.57l-2.084-2.088,1.118-1.115.807.81,4.671-6.127,1.254.957Z" transform="translate(-414.53 -1070.05)" fill="#769e49"/>
            </g>
          </g>
          <g id="Group_8068" data-name="Group 8068" transform="translate(29.27 98.619)">
            <g id="Group_8065" data-name="Group 8065" transform="translate(13.821 2.581)">
              <path id="Path_912" data-name="Path 912" d="M541.965,1175.436H497.446a1.3,1.3,0,0,1-1.25-1.154l-.012-.108a1.01,1.01,0,0,1,1.01-1.154h44.519a1.3,1.3,0,0,1,1.25,1.154l.012.108A1.011,1.011,0,0,1,541.965,1175.436Z" transform="translate(-496.177 -1173.02)"/>
              <path id="Path_913" data-name="Path 913" d="M538.429,1210.787H501.005a1.191,1.191,0,0,1-1.148-1.061l-.032-.3a.928.928,0,0,1,.927-1.061h37.425a1.191,1.191,0,0,1,1.148,1.061l.032.3A.928.928,0,0,1,538.429,1210.787Z" transform="translate(-499.272 -1203.059)"/>
            </g>
            <g id="Group_8066" data-name="Group 8066" transform="translate(0 1.337)">
              <path id="Path_914" data-name="Path 914" d="M411.962,1173.819H406.7a1.994,1.994,0,0,1-1.95-1.785l-.56-5.369a1.763,1.763,0,0,1,.431-1.367,1.691,1.691,0,0,1,1.272-.557h5.258a1.994,1.994,0,0,1,1.95,1.785l.56,5.369a1.769,1.769,0,0,1-.431,1.369A1.692,1.692,0,0,1,411.962,1173.819Zm-6.064-7.73a.349.349,0,0,0-.269.111.406.406,0,0,0-.09.321l.56,5.369a.656.656,0,0,0,.605.574h5.258a.349.349,0,0,0,.269-.111.408.408,0,0,0,.09-.323l-.56-5.369a.656.656,0,0,0-.605-.574H405.9Z" transform="translate(-404.183 -1164.74)"/>
            </g>
            <g id="Group_8067" data-name="Group 8067" transform="translate(2.895)">
              <path id="Path_915" data-name="Path 915" d="M425.534,1164.36l-2.084-2.088,1.118-1.113.807.808,4.671-6.127,1.254.957Z" transform="translate(-423.45 -1155.84)" fill="#769e49"/>
            </g>
          </g>
          <path id="Path_916" data-name="Path 916" d="M453.96,1309.2c3.164,0,5.458-3.032,5.126-6.772H533.15c.332,3.741-1.964,6.772-5.126,6.772Z" transform="translate(-417.212 -1181.788)"/>
        </g>
        <g id="Group_8138" data-name="Group 8138" transform="translate(28.933 11.604)">
          <circle id="Ellipse_429" data-name="Ellipse 429" cx="21.001" cy="21.001" r="21.001" transform="translate(0 162.923) rotate(-45)"/>
          <circle id="Ellipse_430" data-name="Ellipse 430" cx="13.055" cy="13.055" r="13.055" transform="translate(11.237 162.923) rotate(-45)" fill="#f6f6f6"/>
          <circle id="Ellipse_431" data-name="Ellipse 431" cx="6.92" cy="6.92" r="6.92" transform="translate(21.345 168.04) rotate(-76.443)"/>
          <g id="Group_8070" data-name="Group 8070" transform="translate(32.594 120.82)">
            <rect id="Rectangle_1650" data-name="Rectangle 1650" width="25.484" height="9.014" transform="matrix(0.388, -0.922, 0.922, 0.388, 0, 23.492)"/>
          </g>
          <g id="Group_8071" data-name="Group 8071" transform="translate(7.941 137.656)">
            <path id="Path_917" data-name="Path 917" d="M473.612,1370.316l-18.114-6.441a5.147,5.147,0,0,1-2.5-7.787,25.044,25.044,0,0,1,45.581,16.209,5.146,5.146,0,0,1-6.854,4.461Z" transform="translate(-451.85 -1345.047)" fill="#769e49"/>
            <path id="Path_918" data-name="Path 918" d="M492.177,1375.985a5.387,5.387,0,0,1-1.807-.314l-36.228-12.883a5.372,5.372,0,0,1-2.608-8.128,25.269,25.269,0,0,1,45.99,16.355,5.38,5.38,0,0,1-5.347,4.97Zm-19.771-7.18,18.114,6.441a4.921,4.921,0,0,0,6.553-4.267,24.817,24.817,0,0,0-45.17-16.062,4.921,4.921,0,0,0,2.389,7.446Z" transform="translate(-450.569 -1343.749)"/>
          </g>
          <circle id="Ellipse_432" data-name="Ellipse 432" cx="21.001" cy="21.001" r="21.001" transform="translate(100.669 162.924) rotate(-45)"/>
          <circle id="Ellipse_433" data-name="Ellipse 433" cx="13.055" cy="13.055" r="13.055" transform="translate(111.906 162.924) rotate(-45)" fill="#f6f6f6"/>
          <circle id="Ellipse_434" data-name="Ellipse 434" cx="6.92" cy="6.92" r="6.92" transform="translate(121.338 159.18) rotate(-22.5)"/>
          <g id="Group_8072" data-name="Group 8072" transform="translate(83.803 129.611)">
            <path id="Path_919" data-name="Path 919" d="M966.926,1321.336H995.24V1291.71H957.4l.993,4.246a8.1,8.1,0,0,0,4.2,5.422C970.373,1305.278,970.673,1314.673,966.926,1321.336Z" transform="translate(-957.119 -1291.483)" fill="#fff"/>
            <path id="Path_920" data-name="Path 920" d="M993.876,1320.279H964.953l.189-.337a16.581,16.581,0,0,0,1.72-12.662,11.41,11.41,0,0,0-5.954-6.986,8.29,8.29,0,0,1-4.321-5.572l-1.058-4.522h38.347v30.078Zm-28.159-.451h27.706v-29.176H956.095l.929,3.969a7.843,7.843,0,0,0,4.085,5.272,11.844,11.844,0,0,1,6.182,7.256A16.964,16.964,0,0,1,965.717,1319.828Z" transform="translate(-955.53 -1290.2)"/>
          </g>
          <rect id="Rectangle_1651" data-name="Rectangle 1651" width="7.19" height="10.569" transform="translate(147.318 117.633)"/>
          <g id="Group_8073" data-name="Group 8073" transform="translate(154.283 117.409)">
            <path id="Path_921" data-name="Path 921" d="M1426.16,1221.039h0V1210.47h0a2.491,2.491,0,0,1,2.491,2.491v5.587A2.49,2.49,0,0,1,1426.16,1221.039Z" transform="translate(-1425.935 -1210.246)" fill="#c2e6ff"/>
            <path id="Path_922" data-name="Path 922" d="M1424.885,1220h-.226V1208.98h.226a2.719,2.719,0,0,1,2.716,2.716v5.587A2.719,2.719,0,0,1,1424.885,1220Zm.225-10.557v10.1a2.267,2.267,0,0,0,2.04-2.253V1211.7A2.267,2.267,0,0,0,1425.111,1209.441Z" transform="translate(-1424.66 -1208.98)"/>
          </g>
          <g id="Group_8074" data-name="Group 8074" transform="translate(100.493 127.713)">
            <path id="Path_923" data-name="Path 923" d="M1122.379,1310.6a31.526,31.526,0,0,0-31.525-31.525c-17.411,0-22.734,14.115-22.734,31.525Z" transform="translate(-1067.895 -1278.845)" fill="#fff"/>
            <path id="Path_924" data-name="Path 924" d="M1121.329,1309.546h-54.71v-.226c0-21.069,7.725-31.751,22.959-31.751a31.788,31.788,0,0,1,31.751,31.751Zm-54.259-.451h53.807a31.335,31.335,0,0,0-31.3-31.075C1074.7,1278.021,1067.125,1288.474,1067.07,1309.1Z" transform="translate(-1066.62 -1277.57)"/>
          </g>
          <path id="Path_925" data-name="Path 925" d="M1292.956,1060.34H1256.03v29.584a4.851,4.851,0,0,0,4.851,4.851h27.225a4.851,4.851,0,0,0,4.851-4.851V1060.34Z" transform="translate(-1127.08 -965.262)"/>
          <g id="Group_8075" data-name="Group 8075" transform="translate(82.042 119.154)">
            <path id="Path_926" data-name="Path 926" d="M997.3,1232.549H947.131l-1.528-2.509a4.674,4.674,0,0,1,4.39-6.278l46.172-1.672c1.9,0,3.211,2.8,2.507,5.389Z" transform="translate(-945.089 -1221.866)" fill="#769e49"/>
            <path id="Path_927" data-name="Path 927" d="M996.191,1231.508H945.724l-1.612-2.656a4.9,4.9,0,0,1,4.6-6.58l46.164-1.672h0a2.505,2.505,0,0,1,1.982,1.085,5.443,5.443,0,0,1,.751,4.588Zm-50.213-.451h49.869l1.331-4.9a5.055,5.055,0,0,0-.674-4.2,2.076,2.076,0,0,0-1.617-.908l-46.164,1.672a4.449,4.449,0,0,0-4.195,5.954Z" transform="translate(-943.808 -1220.6)"/>
          </g>
          <g id="Group_8076" data-name="Group 8076" transform="translate(136.5 94.852)">
            <path id="Path_928" data-name="Path 928" d="M1344.716,1060.34H1307.79v29.584a4.851,4.851,0,0,0,4.851,4.851h27.225a4.851,4.851,0,0,0,4.851-4.851V1060.34Z" transform="translate(-1307.565 -1060.115)" fill="#769e49"/>
            <path id="Path_929" data-name="Path 929" d="M1338.592,1093.726h-27.226a5.083,5.083,0,0,1-5.076-5.076v-29.81h37.377v29.81A5.081,5.081,0,0,1,1338.592,1093.726Zm-31.851-34.436v29.359a4.631,4.631,0,0,0,4.626,4.626h27.226a4.631,4.631,0,0,0,4.626-4.626V1059.29Z" transform="translate(-1306.29 -1058.84)"/>
          </g>
          <path id="Path_930" data-name="Path 930" d="M1259.35,1282.1h-30.4a1.426,1.426,0,0,1-1.426-1.426h0a1.426,1.426,0,0,1,1.426-1.426h30.4a1.426,1.426,0,0,1,1.426,1.426h0A1.424,1.424,0,0,1,1259.35,1282.1Z" transform="translate(-1102.854 -1151.284)"/>
          <g id="Group_8077" data-name="Group 8077" transform="translate(50.239 128.717)">
            <path id="Path_931" data-name="Path 931" d="M752.645,1316.8a2.238,2.238,0,0,1-1.432-.515c-17.97-14.815-19.051-29.042-19.089-29.642a2.254,2.254,0,0,1,4.5-.29,26.054,26.054,0,0,0,2.519,8.1c2.094,4.483,6.386,11.305,14.939,18.357a2.254,2.254,0,0,1-1.436,3.993Z" transform="translate(-732.12 -1284.251)"/>
          </g>
          <g id="Group_8078" data-name="Group 8078" transform="translate(35.524 113.602)">
            <path id="Path_932" data-name="Path 932" d="M646.181,1185.14h-3.54a2.416,2.416,0,0,0-2.117,1.253l-4.56,8.308a2.414,2.414,0,0,0,2.117,3.576h.775L644.5,1188h1.681v-2.856Z" transform="translate(-635.439 -1184.915)" fill="#c2e6ff"/>
            <path id="Path_933" data-name="Path 933" d="M637.721,1197.227h-.909a2.639,2.639,0,0,1-2.314-3.909l4.56-8.308a2.641,2.641,0,0,1,2.314-1.37h3.765v3.307h-1.773Zm3.651-13.136a2.188,2.188,0,0,0-1.918,1.136l-4.56,8.308a2.188,2.188,0,0,0,1.919,3.242h.643L643.1,1186.5h1.588v-2.405Z" transform="translate(-634.169 -1183.64)"/>
          </g>
          <g id="Group_8079" data-name="Group 8079" transform="translate(46.886 95.913)">
            <path id="Path_934" data-name="Path 934" d="M715.791,1083.814l-5.991-2.964,8.251-14.95,5.993,2.964Z" transform="translate(-709.8 -1065.9)"/>
          </g>
          <g id="Group_8080" data-name="Group 8080" transform="translate(35.176 103.112)">
            <path id="Path_935" data-name="Path 935" d="M664.379,1169.16c-12.938-13.478-19.153-26.36-8.629-48.758h0a4.048,4.048,0,0,0-2.282-3.436l-3.493-1.469a2.282,2.282,0,0,0-2.988,1.218l-12.4,21.864a9.04,9.04,0,0,0-.526,7.86c2.679,6.582,14.118,21.838,21.191,28.593a10.532,10.532,0,0,0,7.171,3.332h31.593a9.2,9.2,0,0,0,9.2-9.2H664.379Z" transform="translate(-633.169 -1115.093)" fill="#fff"/>
            <path id="Path_936" data-name="Path 936" d="M692.7,1177.313H661.107c-2.5,0-4.968-1.142-7.327-3.394-7.321-6.992-18.638-22.265-21.245-28.671a9.208,9.208,0,0,1,.539-8.056l12.393-21.853a2.508,2.508,0,0,1,3.28-1.327l3.493,1.469a4.283,4.283,0,0,1,2.42,3.643v.05l-.021.045c-10.374,22.079-4.439,34.913,8.521,48.436h38.971v.226A9.444,9.444,0,0,1,692.7,1177.313Zm-44.926-63.048a2.06,2.06,0,0,0-1.9,1.26l-.012.024-12.4,21.864a8.758,8.758,0,0,0-.514,7.664c2.59,6.364,13.85,21.554,21.138,28.514,2.272,2.169,4.632,3.269,7.016,3.269H692.7a8.989,8.989,0,0,0,8.977-8.755H662.968l-.066-.069c-13.131-13.677-19.166-26.64-8.693-48.963a3.859,3.859,0,0,0-2.144-3.179l-3.493-1.469A2.094,2.094,0,0,0,647.774,1114.266Z" transform="translate(-631.854 -1113.816)"/>
          </g>
          <g id="Group_8081" data-name="Group 8081" transform="translate(45.839 86.247)">
            <path id="Path_937" data-name="Path 937" d="M707.207,1018.8h0V1003.07h0a2.877,2.877,0,0,0-2.877,2.877v9.976A2.878,2.878,0,0,0,707.207,1018.8Z" transform="translate(-704.105 -1002.843)" fill="#fff"/>
            <path id="Path_938" data-name="Path 938" d="M706.158,1017.74h-.225a3.106,3.106,0,0,1-3.1-3.1v-9.976a3.106,3.106,0,0,1,3.1-3.1h.225Zm-.451-15.719a2.655,2.655,0,0,0-2.426,2.641v9.976a2.655,2.655,0,0,0,2.426,2.641Z" transform="translate(-702.83 -1001.56)"/>
          </g>
          <g id="Group_8082" data-name="Group 8082" transform="translate(48.718 86.236)">
            <path id="Path_939" data-name="Path 939" d="M723.48,1018.712c4.343,0,15.1.7,15.1-7.865s-10.757-7.865-15.1-7.865Z" transform="translate(-723.256 -1002.746)" fill="#769e49"/>
            <path id="Path_940" data-name="Path 940" d="M724.389,1017.7c-.442,0-.861,0-1.251-.007-.332,0-.641-.006-.922-.006h-.225V1001.5h.225c.282,0,.592,0,.922-.006,3.508-.033,9.378-.09,12.441,2.945a7.744,7.744,0,0,1,0,10.3C732.856,1017.438,727.917,1017.7,724.389,1017.7Zm-1.95-.464.7.006c3.437.033,9.19.087,12.12-2.814a7.3,7.3,0,0,0,0-9.663c-2.93-2.9-8.684-2.847-12.12-2.814l-.7.006Z" transform="translate(-721.99 -1001.489)"/>
          </g>
          <g id="Group_8083" data-name="Group 8083" transform="translate(102.779 135.198)">
            <path id="Path_941" data-name="Path 941" d="M1110.7,1356.4h-24.066a3.3,3.3,0,0,1-3.29-3.57c1.1-13.425,8.487-23.929,22.364-23.929,13.733,0,29.387,10.287,32.086,23.512a3.31,3.31,0,0,1-3.229,3.989H1110.7Z" transform="translate(-1083.109 -1328.673)" fill="#769e49"/>
            <path id="Path_942" data-name="Path 942" d="M1133.291,1355.341H1085.36a3.529,3.529,0,0,1-3.515-3.814c.569-6.987,2.8-12.91,6.443-17.129,3.962-4.585,9.544-7.008,16.146-7.008a36.225,36.225,0,0,1,20.31,6.837c6.45,4.566,10.71,10.551,11.995,16.853a3.551,3.551,0,0,1-.727,2.967A3.491,3.491,0,0,1,1133.291,1355.341Zm-28.857-27.5c-12.651,0-20.928,8.868-22.14,23.722a3.076,3.076,0,0,0,3.066,3.326h47.931a3.048,3.048,0,0,0,2.372-1.125,3.1,3.1,0,0,0,.636-2.593C1133.494,1337.423,1117.255,1327.842,1104.434,1327.842Z" transform="translate(-1081.833 -1327.39)"/>
          </g>
          <g id="Group_8085" data-name="Group 8085" transform="translate(50.04 76.673)">
            <g id="Group_8084" data-name="Group 8084">
              <path id="Path_943" data-name="Path 943" d="M738,957.519l-5.43-12.724a3.521,3.521,0,0,1,.81-3.918l.975-.927.777.816-.975.927a2.388,2.388,0,0,0-.548,2.659l5.43,12.723Z" transform="translate(-732.066 -939.631)" fill="#c2e6ff"/>
              <path id="Path_944" data-name="Path 944" d="M736.608,956.013l-5.518-12.931a3.749,3.749,0,0,1,.861-4.171l1.139-1.082,1.088,1.143-1.139,1.082a2.165,2.165,0,0,0-.5,2.408l5.518,12.931Zm-3.535-17.546-.811.772a3.294,3.294,0,0,0-.757,3.666l5.341,12.516.622-.266-5.341-12.516a2.617,2.617,0,0,1,.6-2.911l.811-.772Z" transform="translate(-730.793 -937.83)"/>
            </g>
          </g>
          <g id="Group_8086" data-name="Group 8086" transform="translate(52.089 92.033)">
            <path id="Path_945" data-name="Path 945" d="M748.063,1045.355h-.88a1.252,1.252,0,0,1-1.253-1.253v-1.289a1.252,1.252,0,0,1,1.253-1.253h.88a1.252,1.252,0,0,1,1.253,1.253v1.289A1.251,1.251,0,0,1,748.063,1045.355Z" transform="translate(-745.705 -1041.336)" fill="#fff"/>
            <path id="Path_946" data-name="Path 946" d="M746.789,1044.316h-.88a1.48,1.48,0,0,1-1.478-1.478v-1.289a1.48,1.48,0,0,1,1.478-1.478h.88a1.48,1.48,0,0,1,1.478,1.478v1.289A1.479,1.479,0,0,1,746.789,1044.316Zm-.88-3.8a1.029,1.029,0,0,0-1.028,1.028v1.289a1.029,1.029,0,0,0,1.028,1.028h.88a1.029,1.029,0,0,0,1.028-1.028v-1.289a1.029,1.029,0,0,0-1.028-1.028Z" transform="translate(-744.43 -1040.07)"/>
          </g>
          <g id="Group_8087" data-name="Group 8087" transform="translate(53.058 90.904)">
            <circle id="Ellipse_435" data-name="Ellipse 435" cx="3.209" cy="3.209" r="3.209" transform="translate(0.225 0.225)" fill="#c2e6ff"/>
            <path id="Path_947" data-name="Path 947" d="M754.314,1039.429a3.434,3.434,0,1,1,3.434-3.434A3.438,3.438,0,0,1,754.314,1039.429Zm0-6.419a2.984,2.984,0,1,0,2.984,2.984A2.987,2.987,0,0,0,754.314,1033.009Z" transform="translate(-750.88 -1032.56)"/>
          </g>
          <circle id="Ellipse_436" data-name="Ellipse 436" cx="2.521" cy="2.521" r="2.521" transform="translate(53.332 95.976) rotate(-72.321)"/>
          <g id="Group_8088" data-name="Group 8088" transform="translate(50.931 72.068)">
            <path id="Path_948" data-name="Path 948" d="M740.548,918.856l-.282.034a.909.909,0,0,1-1.013-.793l-1.02-8.358a.91.91,0,0,1,.793-1.013l.282-.034a.909.909,0,0,1,1.012.793l1.02,8.358A.911.911,0,0,1,740.548,918.856Z" transform="translate(-738 -908.46)" fill="#c5dbb2"/>
            <path id="Path_949" data-name="Path 949" d="M738.878,917.844a1.135,1.135,0,0,1-1.125-1l-1.02-8.358a1.136,1.136,0,0,1,.989-1.263l.282-.035a1.134,1.134,0,0,1,1.264.989l1.02,8.358a1.134,1.134,0,0,1-.233.837,1.122,1.122,0,0,1-.756.427l-.283.035A1.11,1.11,0,0,1,738.878,917.844Zm-.736-10.211a.748.748,0,0,0-.083,0l-.283.035a.685.685,0,0,0-.6.762l1.02,8.358a.686.686,0,0,0,.257.457.677.677,0,0,0,.5.14l.282-.034a.685.685,0,0,0,.457-.257.677.677,0,0,0,.14-.5l-1.02-8.358A.686.686,0,0,0,738.142,907.633Z" transform="translate(-736.725 -907.183)"/>
          </g>
          <g id="Group_8089" data-name="Group 8089" transform="translate(127.623 91.223)">
            <rect id="Rectangle_1652" data-name="Rectangle 1652" width="7.223" height="5.027" transform="translate(0.225 0.225)"/>
            <path id="Path_950" data-name="Path 950" d="M1254.874,1040.158H1247.2v-5.478h7.674Zm-7.224-.451h6.773v-4.576h-6.773Z" transform="translate(-1247.2 -1034.68)"/>
          </g>
          <g id="Group_8090" data-name="Group 8090" transform="translate(134.846 91.223)">
            <rect id="Rectangle_1653" data-name="Rectangle 1653" width="39.916" height="5.027" transform="translate(0.225 0.225)" fill="#769e49"/>
            <path id="Path_951" data-name="Path 951" d="M1335.646,1040.158H1295.28v-5.478h40.366Zm-39.916-.451H1335.2v-4.576h-39.465Z" transform="translate(-1295.28 -1034.68)"/>
          </g>
          <g id="Group_8091" data-name="Group 8091" transform="translate(144.631 100.464)">
            <path id="Path_952" data-name="Path 952" d="M1381.208,1104.93h-7.24v-7.24h-4.827v7.24H1361.9v4.827h7.241V1117h4.827v-7.241h7.24Z" transform="translate(-1361.676 -1097.464)" fill="#fff"/>
            <path id="Path_953" data-name="Path 953" d="M1372.927,1115.949h-5.278v-7.24h-7.24v-5.278h7.24v-7.241h5.278v7.241h7.24v5.278h-7.24Zm-4.827-.451h4.376v-7.24h7.24v-4.376h-7.24v-7.241H1368.1v7.241h-7.24v4.376h7.24Z" transform="translate(-1360.41 -1096.19)"/>
          </g>
          <g id="Group_8093" data-name="Group 8093" transform="translate(101.36 27.798)">
            <g id="Group_8092" data-name="Group 8092">
              <path id="Path_954" data-name="Path 954" d="M1096.731,614.445a6.926,6.926,0,0,0-9.259,5.335,6.926,6.926,0,0,0-9.259-5.335c-4.224,1.779-5.354,6.122-3.413,10.6,3.194,7.365,12.674,13.016,12.674,13.016s9.478-5.65,12.674-13.016C1102.086,620.569,1100.955,616.224,1096.731,614.445Z" transform="translate(-1073.656 -613.777)" fill="#d4721b"/>
              <path id="Path_955" data-name="Path 955" d="M1086.2,637.051l-.116-.069c-.094-.057-9.578-5.774-12.764-13.12a9.16,9.16,0,0,1-.416-7.029,7.036,7.036,0,0,1,3.948-3.864,7.164,7.164,0,0,1,5.831.355,7.076,7.076,0,0,1,3.516,4.315,7.081,7.081,0,0,1,3.516-4.315,7.17,7.17,0,0,1,5.831-.355h0a7.04,7.04,0,0,1,3.948,3.864,9.171,9.171,0,0,1-.415,7.031c-3.186,7.346-12.669,13.063-12.764,13.12Zm-6.912-24.1a5.856,5.856,0,0,0-2.259.428,6.6,6.6,0,0,0-3.7,3.618,8.724,8.724,0,0,0,.41,6.682c2.938,6.776,11.379,12.168,12.467,12.842,1.088-.674,9.528-6.065,12.466-12.841a8.715,8.715,0,0,0,.41-6.682,6.6,6.6,0,0,0-3.7-3.618h0a6.7,6.7,0,0,0-5.449.34,6.813,6.813,0,0,0-3.5,4.836l-.219,1-.219-1a6.8,6.8,0,0,0-3.5-4.836A6.982,6.982,0,0,0,1079.291,612.955Z" transform="translate(-1072.387 -612.507)"/>
            </g>
            <path id="Path_956" data-name="Path 956" d="M1090.57,673.222c1.055-.059,2.109-.1,3.164-.146l3.162-.113-.222.126,1.379-2.458.263-.47.312.47c.473.712.927,1.436,1.391,2.154s.907,1.448,1.361,2.172l-.858.05c.385-.927.8-1.84,1.2-2.761l.625-1.37.631-1.367.4-.87.472.813.691,1.19c.23.4.464.792.685,1.194l.673,1.2c.227.4.44.807.661,1.21l-.473-.056.79-.726.8-.718.066-.059h.071q2.463.077,4.928.192-2.463.117-4.928.192l.136-.057-.71.8-.72.8-.248.275-.225-.331c-.259-.38-.525-.754-.777-1.137l-.763-1.146c-.257-.38-.5-.768-.751-1.154l-.745-1.157.873-.056-.6,1.381-.607,1.378c-.422.91-.828,1.828-1.265,2.733l-.409.846-.449-.8c-.421-.744-.849-1.483-1.263-2.231s-.831-1.493-1.232-2.249h.575l-1.51,2.378-.083.131-.138,0-3.163-.113C1092.679,673.326,1091.625,673.281,1090.57,673.222Z" transform="translate(-1087.838 -660.207)" fill="#fff"/>
          </g>
          <g id="Group_8101" data-name="Group 8101" transform="translate(136.659)">
            <path id="Path_957" data-name="Path 957" d="M1404.04,633.343h1.786V632.33Z" transform="translate(-1389.513 -601.554)" fill="#466eb6"/>
            <g id="Group_8097" data-name="Group 8097">
              <g id="Group_8094" data-name="Group 8094" transform="translate(1.788 0.001)">
                <path id="Path_958" data-name="Path 958" d="M1349.33,432.135a34.126,34.126,0,0,0-28.578,0c-.174,14.343,3.056,25.325,14.289,28.411C1346.273,457.461,1349.5,446.478,1349.33,432.135Z" transform="translate(-1320.521 -428.773)"/>
                <path id="Path_959" data-name="Path 959" d="M1333.767,459.5l-.06-.017c-10.066-2.764-14.658-11.863-14.454-28.632V430.7l.134-.059a34.359,34.359,0,0,1,28.758,0l.134.059v.146c.2,16.768-4.388,25.866-14.454,28.632ZM1319.7,431c-.173,16.406,4.3,25.315,14.065,28.029,9.767-2.713,14.238-11.624,14.065-28.029a33.883,33.883,0,0,0-28.13,0Z" transform="translate(-1319.247 -427.49)"/>
              </g>
              <g id="Group_8095" data-name="Group 8095">
                <path id="Path_960" data-name="Path 960" d="M1337.143,439.777a42.9,42.9,0,0,1-.986,6.02,28.932,28.932,0,0,1-1.319,4.128h0a19.02,19.02,0,0,1-3.969,6.2,15.9,15.9,0,0,1-3.407,2.641,17.31,17.31,0,0,1-2.536,1.2c-.572.218-1.166.412-1.786.581q-.379-.1-.747-.221a16.5,16.5,0,0,1-7.5-4.756c-3.86-4.313-5.556-10.76-5.955-18.488q-.124-2.4-.089-4.946a39.775,39.775,0,0,1,3.978-1.5q1.217-.385,2.432-.679,1.375-.331,2.746-.548a33.156,33.156,0,0,1,4.133-.389q.5-.016,1-.015a32.822,32.822,0,0,1,5.088.4q1.417.221,2.832.566,1.614.392,3.229.945,1.57.539,3.14,1.226A70.959,70.959,0,0,1,1337.143,439.777Z" transform="translate(-1308.619 -428.78)" fill="#d4721b"/>
                <path id="Path_961" data-name="Path 961" d="M1321.868,459.488l-.06-.017c-.266-.074-.514-.147-.756-.224a16.815,16.815,0,0,1-7.6-4.821c-3.606-4.031-5.572-10.123-6.012-18.626-.08-1.559-.11-3.229-.089-4.961v-.146l.134-.059a40.351,40.351,0,0,1,4-1.511c.817-.259,1.64-.488,2.447-.684.917-.222,1.846-.407,2.764-.553a33.637,33.637,0,0,1,4.162-.392c.341-.011.679-.015,1.007-.015a33.278,33.278,0,0,1,5.123.4c.945.147,1.9.338,2.851.569,1.077.261,2.171.581,3.248.951,1.046.358,2.108.772,3.158,1.233l.134.059v.146a71.173,71.173,0,0,1-.287,7.659h0a43.383,43.383,0,0,1-.992,6.051,29.36,29.36,0,0,1-1.313,4.119h0l-.017.042a19.327,19.327,0,0,1-4.016,6.275,16.224,16.224,0,0,1-3.454,2.679,17.577,17.577,0,0,1-2.569,1.218c-.578.219-1.185.418-1.806.589Zm-14.065-28.5c-.018,1.671.012,3.28.09,4.786.434,8.4,2.363,14.4,5.9,18.35a16.384,16.384,0,0,0,7.4,4.692c.219.069.442.135.679.2.586-.164,1.16-.352,1.7-.559a17.292,17.292,0,0,0,2.5-1.187,15.823,15.823,0,0,0,3.359-2.6,18.858,18.858,0,0,0,3.906-6.1l.015-.036a28.777,28.777,0,0,0,1.309-4.1,42.936,42.936,0,0,0,.979-5.988h0a70.349,70.349,0,0,0,.287-7.464c-.995-.433-2-.823-2.99-1.161-1.063-.365-2.144-.681-3.207-.939-.935-.228-1.883-.416-2.814-.562a32.76,32.76,0,0,0-5.054-.4c-.323,0-.658,0-.993.015a32.974,32.974,0,0,0-4.1.386c-.906.143-1.824.326-2.729.545-.8.192-1.609.419-2.417.675A39.309,39.309,0,0,0,1307.8,430.992Z" transform="translate(-1307.347 -427.48)"/>
              </g>
              <g id="Group_8096" data-name="Group 8096" transform="translate(3.558 3.585)">
                <path id="Path_962" data-name="Path 962" d="M1353.945,458.779a40.249,40.249,0,0,1-.693,6.074,24.231,24.231,0,0,1-1.063,3.789,15.769,15.769,0,0,1-2.321,4.229,12.311,12.311,0,0,1-1.71,1.783,12.069,12.069,0,0,1-1.6,1.152,12.794,12.794,0,0,1-1.974.965c-.188.074-.379.143-.572.209-.243.083-.491.161-.745.231a14.285,14.285,0,0,1-1.649-.575c-.144-.06-.286-.123-.425-.188-6.765-3.125-8.777-11.078-8.657-21.2q.807-.365,1.614-.673l.327-.123q1.035-.381,2.067-.674c.2-.056.392-.108.588-.159q1.068-.277,2.138-.457.949-.16,1.9-.243,1.052-.095,2.106-.093c.05,0,.1,0,.149,0a24.036,24.036,0,0,1,3.786.325q1.228.2,2.457.533a28.008,28.008,0,0,1,2.967.983q.687.27,1.375.58C1354.012,456.463,1354,457.639,1353.945,458.779Z" transform="translate(-1332.301 -452.606)" fill="#c5dbb2"/>
                <path id="Path_963" data-name="Path 963" d="M1341.99,476.181l-.062-.017a14.658,14.658,0,0,1-1.677-.584c-.146-.062-.29-.125-.433-.191-6.134-2.833-8.927-9.635-8.787-21.4v-.144l.131-.059c.539-.243,1.086-.472,1.626-.679l.329-.125c.7-.257,1.4-.485,2.084-.679.2-.056.395-.11.592-.161.712-.185,1.438-.34,2.156-.46.631-.107,1.276-.189,1.913-.246.7-.063,1.418-.095,2.126-.095.051,0,.1,0,.155,0a24.479,24.479,0,0,1,3.817.328c.825.137,1.659.318,2.477.538a28.067,28.067,0,0,1,2.991.99c.445.174.912.371,1.385.585l.131.059v.144c.015,1.233,0,2.423-.052,3.538a40.591,40.591,0,0,1-.7,6.108,24.781,24.781,0,0,1-1.074,3.825,16.071,16.071,0,0,1-2.354,4.288,12.71,12.71,0,0,1-1.74,1.816,12.235,12.235,0,0,1-1.633,1.173,13.071,13.071,0,0,1-2.007.981c-.188.074-.385.146-.581.212-.248.084-.5.164-.757.236Zm-10.509-22.046c-.113,11.481,2.6,18.106,8.527,20.844.138.065.277.125.417.185a13.8,13.8,0,0,0,1.564.548c.225-.065.452-.135.672-.21.192-.065.381-.134.563-.206a12.686,12.686,0,0,0,1.94-.948,11.832,11.832,0,0,0,1.573-1.131,12.281,12.281,0,0,0,1.678-1.752,15.585,15.585,0,0,0,2.287-4.169,24.2,24.2,0,0,0,1.053-3.754,40.2,40.2,0,0,0,.689-6.039h0c.048-1.062.066-2.193.054-3.368-.422-.188-.835-.362-1.234-.517a28.009,28.009,0,0,0-2.943-.975c-.805-.216-1.624-.4-2.434-.529a23.97,23.97,0,0,0-3.751-.322c-.051,0-.1,0-.147,0-.694,0-1.4.032-2.085.093-.626.056-1.257.137-1.878.242-.706.119-1.418.27-2.119.452-.194.05-.389.1-.583.158-.676.191-1.365.416-2.051.669l-.325.122C1332.463,453.712,1331.971,453.918,1331.481,454.136Z" transform="translate(-1331.027 -451.34)"/>
              </g>
            </g>
            <g id="Group_8098" data-name="Group 8098" transform="translate(7.287 8.768)">
              <path id="Path_965" data-name="Path 965" d="M1365.063,500.309h-3.956v-5.257h-5.256V491.1h5.256V485.84h3.956V491.1h5.257v3.956h-5.257Zm-3.5-.451h3.054V494.6h5.257v-3.054h-5.257v-5.257h-3.054v5.257H1356.3V494.6h5.257Z" transform="translate(-1355.85 -485.84)"/>
              <path id="Path_964" data-name="Path 964" d="M1371.368,492.588h-5.257V487.33h-3.505v5.258h-5.257v3.5h5.257v5.258h3.505v-5.258h5.257Z" transform="translate(-1357.125 -487.106)" fill="#d4721b"/>
            </g>
          </g>
          <g id="Group_8128" data-name="Group 8128" transform="translate(131.481 52.599)">
            <g id="Group_8102" data-name="Group 8102" transform="translate(0.481 3.001)">
              <path id="Path_974" data-name="Path 974" d="M1285.97,828.7a2.881,2.881,0,0,1-3.7-1.687l-5.048-13.5a6.2,6.2,0,0,1,.531-5.46,5.639,5.639,0,0,0,.431-4.866l-.209-.557,10.885-4.068.209.557a5.638,5.638,0,0,0,3.517,3.391,6.208,6.208,0,0,1,3.981,3.774l5.048,13.5a2.881,2.881,0,0,1-1.687,3.7Z" transform="translate(-1276.709 -798.411)" fill="#d4721b"/>
              <path id="Path_975" data-name="Path 975" d="M1284.339,828.155a3,3,0,0,1-2.8-1.944l-5.046-13.5a6.325,6.325,0,0,1,.539-5.559,5.526,5.526,0,0,0,.422-4.768l-.248-.664,11.095-4.148.248.664a5.524,5.524,0,0,0,3.448,3.323,6.315,6.315,0,0,1,4.052,3.842l5.046,13.5a2.993,2.993,0,0,1-1.753,3.848l-13.954,5.216A2.976,2.976,0,0,1,1284.339,828.155Zm-6.846-26.3.168.452a5.751,5.751,0,0,1-.44,4.964,6.1,6.1,0,0,0-.521,5.363l5.046,13.5a2.768,2.768,0,0,0,3.558,1.621l13.954-5.216a2.769,2.769,0,0,0,1.621-3.557l-5.046-13.5a6.093,6.093,0,0,0-3.911-3.7,5.749,5.749,0,0,1-3.589-3.458l-.168-.452Z" transform="translate(-1276.084 -797.57)"/>
            </g>
            <g id="Group_8103" data-name="Group 8103" transform="translate(1.074 3.77)">
              <path id="Path_976" data-name="Path 976" d="M1299.408,810.813a5.651,5.651,0,0,0-3.608-3.415h0a6.257,6.257,0,0,1-3.892-3.748h0l-9.768,3.652h0a6.261,6.261,0,0,1-.479,5.383h0a5.655,5.655,0,0,0-.482,4.944l5.048,13.5a2.282,2.282,0,0,0,2.937,1.339l13.954-5.216a2.282,2.282,0,0,0,1.339-2.937Z" transform="translate(-1280.703 -803.506)" fill="#c5dbb2"/>
              <path id="Path_977" data-name="Path 977" d="M1287.7,831.909a2.4,2.4,0,0,1-2.246-1.556l-5.048-13.5a5.728,5.728,0,0,1,.491-5.042,6.119,6.119,0,0,0,.47-5.284l-.039-.105,9.98-3.73.039.105a6.114,6.114,0,0,0,3.822,3.681,5.726,5.726,0,0,1,3.676,3.482l5.048,13.5a2.4,2.4,0,0,1-1.4,3.081l-13.954,5.216A2.366,2.366,0,0,1,1287.7,831.909Zm-6.082-25.358a6.343,6.343,0,0,1-.526,5.374,5.505,5.505,0,0,0-.473,4.846l5.048,13.5a2.171,2.171,0,0,0,2.791,1.272l13.954-5.216a2.171,2.171,0,0,0,1.272-2.791l-5.048-13.5a5.5,5.5,0,0,0-3.535-3.347,6.336,6.336,0,0,1-3.924-3.712Z" transform="translate(-1280.035 -802.69)"/>
            </g>
            <g id="Group_8104" data-name="Group 8104" transform="translate(1.671 8.106)">
              <path id="Path_978" data-name="Path 978" d="M1302.2,835.419l5.048,13.5a1.689,1.689,0,0,1-.99,2.171l-13.954,5.216a1.686,1.686,0,0,1-2.169-.989l-5.048-13.5a5.025,5.025,0,0,1,.431-4.423l0-.009,13.442-5.025.009,0A5.025,5.025,0,0,1,1302.2,835.419Z" transform="translate(-1284.653 -832.238)" fill="#d4721b"/>
              <path id="Path_979" data-name="Path 979" d="M1291.07,855.839a1.806,1.806,0,0,1-1.686-1.17l-5.048-13.5a5.136,5.136,0,0,1,.44-4.522l.02-.033.041-.023,13.48-5.039.039.013a5.138,5.138,0,0,1,3.3,3.125l5.048,13.5a1.8,1.8,0,0,1-1.056,2.315l-13.954,5.216A1.725,1.725,0,0,1,1291.07,855.839Zm-6.116-19.051a4.92,4.92,0,0,0-.407,4.3l5.048,13.5a1.575,1.575,0,0,0,2.025.922l13.954-5.216a1.576,1.576,0,0,0,.924-2.025l-5.048-13.5a4.907,4.907,0,0,0-3.128-2.979Z" transform="translate(-1284.005 -831.55)"/>
            </g>
            <g id="Group_8105" data-name="Group 8105" transform="translate(3.736 10.9)">
              <path id="Path_980" data-name="Path 980" d="M1374.8,850.913a.4.4,0,1,1,.225-.506A.393.393,0,0,1,1374.8,850.913Z" transform="translate(-1362.774 -850.148)" fill="#fff"/>
              <path id="Path_981" data-name="Path 981" d="M1369.016,873.517a.569.569,0,1,1,.324-.729A.564.564,0,0,1,1369.016,873.517Z" transform="translate(-1357.664 -869.071)" fill="#fff"/>
              <path id="Path_982" data-name="Path 982" d="M1354.738,868.946a.383.383,0,1,1,.219-.491A.38.38,0,0,1,1354.738,868.946Z" transform="translate(-1345.742 -865.492)" fill="#fff"/>
              <path id="Path_983" data-name="Path 983" d="M1350.112,892.76a.322.322,0,1,1,.183-.412A.318.318,0,0,1,1350.112,892.76Z" transform="translate(-1341.881 -885.829)" fill="#fff"/>
              <path id="Path_984" data-name="Path 984" d="M1333.626,876.868a.472.472,0,1,1,.269-.6A.467.467,0,0,1,1333.626,876.868Z" transform="translate(-1327.702 -872.078)" fill="#fff"/>
              <path id="Path_985" data-name="Path 985" d="M1327.439,897.011a.3.3,0,1,1,.17-.38A.294.294,0,0,1,1327.439,897.011Z" transform="translate(-1322.642 -889.483)" fill="#fff"/>
              <path id="Path_986" data-name="Path 986" d="M1331.043,863.7a.247.247,0,1,1,.141-.317A.245.245,0,0,1,1331.043,863.7Z" transform="translate(-1325.761 -861.256)" fill="#fff"/>
              <path id="Path_987" data-name="Path 987" d="M1344.993,858.487a.247.247,0,1,1,.141-.317A.247.247,0,0,1,1344.993,858.487Z" transform="translate(-1337.615 -856.828)" fill="#fff"/>
              <path id="Path_988" data-name="Path 988" d="M1309.631,880.909a.432.432,0,1,1,.246-.554A.43.43,0,0,1,1309.631,880.909Z" transform="translate(-1307.355 -875.577)" fill="#fff"/>
              <path id="Path_989" data-name="Path 989" d="M1307.832,897.7a.346.346,0,1,1,.2-.443A.344.344,0,0,1,1307.832,897.7Z" transform="translate(-1305.924 -889.984)" fill="#fff"/>
              <ellipse id="Ellipse_437" data-name="Ellipse 437" cx="0.291" cy="0.296" rx="0.291" ry="0.296" transform="translate(0 6.185) rotate(-20.486)" fill="#fff"/>
            </g>
            <g id="Group_8106" data-name="Group 8106" transform="translate(9.007 22.775)">
              <path id="Path_990" data-name="Path 990" d="M1333.09,975.433a.4.4,0,1,1-.225.506A.393.393,0,0,1,1333.09,975.433Z" transform="translate(-1332.839 -968.464)" fill="#fff"/>
              <path id="Path_991" data-name="Path 991" d="M1336.958,950.871a.569.569,0,1,1-.325.729A.563.563,0,0,1,1336.958,950.871Z" transform="translate(-1336.032 -947.584)" fill="#fff"/>
              <path id="Path_992" data-name="Path 992" d="M1353.3,957.538a.383.383,0,1,1-.219.491A.38.38,0,0,1,1353.3,957.538Z" transform="translate(-1350.02 -953.259)" fill="#fff"/>
              <path id="Path_993" data-name="Path 993" d="M1358.608,934.427a.322.322,0,1,1-.183.411A.317.317,0,0,1,1358.608,934.427Z" transform="translate(-1354.564 -933.623)" fill="#fff"/>
              <path id="Path_994" data-name="Path 994" d="M1373.425,948.614a.472.472,0,1,1-.269.6A.466.466,0,0,1,1373.425,948.614Z" transform="translate(-1367.073 -945.671)" fill="#fff"/>
              <path id="Path_995" data-name="Path 995" d="M1381.563,930.445a.3.3,0,1,1-.17.38A.294.294,0,0,1,1381.563,930.445Z" transform="translate(-1374.082 -930.241)" fill="#fff"/>
              <path id="Path_996" data-name="Path 996" d="M1378.51,964.325a.247.247,0,1,1-.141.317A.245.245,0,0,1,1378.51,964.325Z" transform="translate(-1371.515 -959.033)" fill="#fff"/>
              <path id="Path_997" data-name="Path 997" d="M1364.564,969.534a.247.247,0,1,1-.141.317A.245.245,0,0,1,1364.564,969.534Z" transform="translate(-1359.665 -963.46)" fill="#fff"/>
              <ellipse id="Ellipse_438" data-name="Ellipse 438" cx="0.425" cy="0.433" rx="0.425" ry="0.433" transform="translate(9.604 2.542) rotate(-20.463)" fill="#fff"/>
              <path id="Path_998" data-name="Path 998" d="M1400.614,929.208a.346.346,0,1,1-.2.443A.344.344,0,0,1,1400.614,929.208Z" transform="translate(-1390.245 -929.187)" fill="#fff"/>
              <path id="Path_999" data-name="Path 999" d="M1410.372,936.355a.3.3,0,1,1-.17.38A.294.294,0,0,1,1410.372,936.355Z" transform="translate(-1398.563 -935.263)" fill="#fff"/>
            </g>
            <g id="Group_8107" data-name="Group 8107">
              <path id="Path_1000" data-name="Path 1000" d="M1287.638,783l-12.5,4.672-1.417-3.789a1.328,1.328,0,0,1,.78-1.71l10.011-3.742a1.329,1.329,0,0,1,1.71.78Z" transform="translate(-1273.524 -778.234)" fill="#d4721b"/>
              <path id="Path_1001" data-name="Path 1001" d="M1274.433,787.177l-1.456-3.9a1.443,1.443,0,0,1,.846-1.855l10.012-3.742a1.442,1.442,0,0,1,1.854.846l1.456,3.9Zm9.905-9.358a1.208,1.208,0,0,0-.427.078L1273.9,781.64a1.216,1.216,0,0,0-.714,1.564l1.378,3.684,12.289-4.594-1.377-3.684a1.215,1.215,0,0,0-1.137-.79Z" transform="translate(-1272.885 -777.593)"/>
            </g>
            <g id="Group_8124" data-name="Group 8124" transform="translate(0.396 0.003)">
              <g id="Group_8108" data-name="Group 8108" transform="translate(0 4.124)">
                <path id="Path_1002" data-name="Path 1002" d="M1277.473,810.215a.113.113,0,0,1-.1-.074l-1.84-4.924a.112.112,0,1,1,.21-.08l1.84,4.925a.113.113,0,0,1-.066.146A.111.111,0,0,1,1277.473,810.215Z" transform="translate(-1275.52 -805.064)" fill="#fff"/>
              </g>
              <g id="Group_8109" data-name="Group 8109" transform="translate(0.693 3.739)">
                <path id="Path_1003" data-name="Path 1003" d="M1282.125,807.765a.113.113,0,0,1-.105-.074l-1.882-5.034a.112.112,0,1,1,.21-.08l1.883,5.034a.113.113,0,0,1-.066.146A.109.109,0,0,1,1282.125,807.765Z" transform="translate(-1280.13 -802.504)" fill="#fff"/>
              </g>
              <g id="Group_8110" data-name="Group 8110" transform="translate(1.429 3.464)">
                <path id="Path_1004" data-name="Path 1004" d="M1287.025,805.935a.112.112,0,0,1-.105-.074l-1.883-5.034a.112.112,0,1,1,.21-.079l1.883,5.034a.113.113,0,0,1-.066.146A.129.129,0,0,1,1287.025,805.935Z" transform="translate(-1285.03 -800.674)" fill="#fff"/>
              </g>
              <g id="Group_8111" data-name="Group 8111" transform="translate(2.163 3.189)">
                <path id="Path_1005" data-name="Path 1005" d="M1291.915,804.1a.113.113,0,0,1-.105-.074L1289.927,799a.112.112,0,1,1,.21-.08l1.882,5.034a.113.113,0,0,1-.066.146A.116.116,0,0,1,1291.915,804.1Z" transform="translate(-1289.92 -798.844)" fill="#fff"/>
              </g>
              <g id="Group_8112" data-name="Group 8112" transform="translate(2.9 2.915)">
                <path id="Path_1006" data-name="Path 1006" d="M1296.815,802.275a.113.113,0,0,1-.105-.074l-1.882-5.034a.112.112,0,1,1,.21-.08l1.882,5.034a.113.113,0,0,1-.066.146A.129.129,0,0,1,1296.815,802.275Z" transform="translate(-1294.82 -797.014)" fill="#fff"/>
              </g>
              <g id="Group_8113" data-name="Group 8113" transform="translate(3.634 2.64)">
                <path id="Path_1007" data-name="Path 1007" d="M1301.705,800.445a.112.112,0,0,1-.1-.074l-1.883-5.034a.113.113,0,0,1,.066-.146.112.112,0,0,1,.144.066l1.882,5.034a.113.113,0,0,1-.066.146A.116.116,0,0,1,1301.705,800.445Z" transform="translate(-1299.71 -795.184)" fill="#fff"/>
              </g>
              <g id="Group_8114" data-name="Group 8114" transform="translate(4.37 2.365)">
                <path id="Path_1008" data-name="Path 1008" d="M1306.605,798.615a.113.113,0,0,1-.105-.074l-1.882-5.034a.112.112,0,1,1,.21-.08l1.883,5.034a.113.113,0,0,1-.066.146A.126.126,0,0,1,1306.605,798.615Z" transform="translate(-1304.61 -793.354)" fill="#fff"/>
              </g>
              <g id="Group_8115" data-name="Group 8115" transform="translate(5.105 2.09)">
                <path id="Path_1009" data-name="Path 1009" d="M1311.5,796.785a.113.113,0,0,1-.1-.074l-1.883-5.034a.112.112,0,1,1,.21-.08l1.882,5.034a.113.113,0,0,1-.066.146A.088.088,0,0,1,1311.5,796.785Z" transform="translate(-1309.5 -791.524)" fill="#fff"/>
              </g>
              <g id="Group_8116" data-name="Group 8116" transform="translate(5.84 1.815)">
                <path id="Path_1010" data-name="Path 1010" d="M1316.385,794.955a.113.113,0,0,1-.1-.073l-1.883-5.034a.113.113,0,1,1,.21-.08l1.882,5.034a.113.113,0,0,1-.066.146A.085.085,0,0,1,1316.385,794.955Z" transform="translate(-1314.39 -789.694)" fill="#fff"/>
              </g>
              <g id="Group_8117" data-name="Group 8117" transform="translate(6.576 1.54)">
                <path id="Path_1011" data-name="Path 1011" d="M1321.285,793.125a.113.113,0,0,1-.105-.073l-1.882-5.035a.112.112,0,1,1,.21-.08l1.883,5.034a.113.113,0,0,1-.066.146A.089.089,0,0,1,1321.285,793.125Z" transform="translate(-1319.29 -787.864)" fill="#fff"/>
              </g>
              <g id="Group_8118" data-name="Group 8118" transform="translate(7.31 1.265)">
                <path id="Path_1012" data-name="Path 1012" d="M1326.175,791.295a.112.112,0,0,1-.1-.074l-1.883-5.034a.112.112,0,1,1,.21-.08l1.882,5.034a.113.113,0,0,1-.066.146A.088.088,0,0,1,1326.175,791.295Z" transform="translate(-1324.18 -786.034)" fill="#fff"/>
              </g>
              <g id="Group_8119" data-name="Group 8119" transform="translate(8.047 0.99)">
                <path id="Path_1013" data-name="Path 1013" d="M1331.075,789.465a.113.113,0,0,1-.1-.074l-1.883-5.034a.112.112,0,1,1,.21-.08l1.882,5.035a.113.113,0,0,1-.066.146A.1.1,0,0,1,1331.075,789.465Z" transform="translate(-1329.08 -784.204)" fill="#fff"/>
              </g>
              <g id="Group_8120" data-name="Group 8120" transform="translate(8.781 0.715)">
                <path id="Path_1014" data-name="Path 1014" d="M1335.965,787.635a.113.113,0,0,1-.105-.074l-1.883-5.034a.113.113,0,1,1,.21-.08l1.882,5.034a.113.113,0,0,1-.066.146A.082.082,0,0,1,1335.965,787.635Z" transform="translate(-1333.97 -782.374)" fill="#fff"/>
              </g>
              <g id="Group_8121" data-name="Group 8121" transform="translate(9.517 0.44)">
                <path id="Path_1015" data-name="Path 1015" d="M1340.865,785.8a.113.113,0,0,1-.1-.074l-1.882-5.034a.112.112,0,1,1,.21-.08l1.882,5.035a.113.113,0,0,1-.066.146A.1.1,0,0,1,1340.865,785.8Z" transform="translate(-1338.87 -780.544)" fill="#fff"/>
              </g>
              <g id="Group_8122" data-name="Group 8122" transform="translate(10.254 0.165)">
                <path id="Path_1016" data-name="Path 1016" d="M1345.764,783.975a.113.113,0,0,1-.105-.073l-1.881-5.034a.112.112,0,1,1,.21-.08l1.881,5.035a.113.113,0,0,1-.066.146A.087.087,0,0,1,1345.764,783.975Z" transform="translate(-1343.77 -778.714)" fill="#fff"/>
              </g>
              <g id="Group_8123" data-name="Group 8123" transform="translate(11.029)">
                <path id="Path_1017" data-name="Path 1017" d="M1350.883,782.765a.113.113,0,0,1-.105-.074l-1.84-4.925a.112.112,0,1,1,.21-.08l1.84,4.925a.113.113,0,0,1-.066.146A.088.088,0,0,1,1350.883,782.765Z" transform="translate(-1348.93 -777.614)" fill="#fff"/>
              </g>
            </g>
            <g id="Group_8127" data-name="Group 8127" transform="translate(1.677 12.945)">
              <g id="Group_8125" data-name="Group 8125">
                <rect id="Rectangle_1654" data-name="Rectangle 1654" width="20.653" height="8.816" transform="translate(0.14 7.386) rotate(-20.494)" fill="#fff"/>
                <path id="Path_1018" data-name="Path 1018" d="M1287.215,879.539l-3.166-8.469,19.556-7.31,3.166,8.469Zm-2.876-8.337,3.008,8.047,19.134-7.153-3.008-8.047Z" transform="translate(-1284.05 -863.76)"/>
              </g>
              <path id="Path_1019" data-name="Path 1019" d="M1345.106,882.157l-11.422,4.27a.3.3,0,0,1-.38-.173h0a.3.3,0,0,1,.173-.38l11.422-4.27a.3.3,0,0,1,.38.173h0A.294.294,0,0,1,1345.106,882.157Z" transform="translate(-1325.888 -878.907)"/>
              <path id="Path_1020" data-name="Path 1020" d="M1348.136,890.247l-11.422,4.27a.3.3,0,0,1-.38-.173h0a.3.3,0,0,1,.173-.38l11.423-4.27a.3.3,0,0,1,.38.173h0A.3.3,0,0,1,1348.136,890.247Z" transform="translate(-1328.463 -885.782)"/>
              <path id="Path_1021" data-name="Path 1021" d="M1351.157,898.337l-11.422,4.27a.3.3,0,0,1-.38-.173h0a.3.3,0,0,1,.173-.38l11.422-4.27a.3.3,0,0,1,.38.173h0A.3.3,0,0,1,1351.157,898.337Z" transform="translate(-1331.03 -892.657)"/>
              <path id="Path_1022" data-name="Path 1022" d="M1354.177,906.417l-11.422,4.27a.3.3,0,0,1-.38-.173h0a.3.3,0,0,1,.173-.38l11.422-4.27a.3.3,0,0,1,.38.173h0A.293.293,0,0,1,1354.177,906.417Z" transform="translate(-1333.596 -899.523)"/>
              <g id="Group_8126" data-name="Group 8126" transform="translate(2.159 7.477)">
                <path id="Path_1023" data-name="Path 1023" d="M1304.253,915.632l-1.824.682-.682-1.824-1.215.454.682,1.825-1.824.681.454,1.217,1.824-.682.682,1.824,1.217-.454-.682-1.825,1.824-.682Z" transform="translate(-1299.244 -914.346)" fill="#d4721b"/>
                <path id="Path_1024" data-name="Path 1024" d="M1301.459,919.138l-.682-1.824-1.824.682-.533-1.427,1.824-.682-.682-1.824,1.427-.533.682,1.824,1.824-.682.534,1.427-1.824.682.682,1.824Zm-.548-2.115.682,1.824,1.005-.375-.682-1.824,1.824-.682-.375-1.005-1.824.682-.682-1.824-1.005.376.682,1.824-1.824.682.375,1.005Z" transform="translate(-1298.42 -913.53)" fill="#d4721b"/>
              </g>
            </g>
          </g>
          <g id="Group_8131" data-name="Group 8131" transform="translate(188.82 5.61)">
            <g id="Group_8129" data-name="Group 8129" transform="translate(0.967 7.603)">
              <path id="Path_1025" data-name="Path 1025" d="M1669.888,517.19l.936,4.708a3.644,3.644,0,1,1-7.148,1.421l-.936-4.708Z" transform="translate(-1662.475 -516.926)" fill="#c5dbb2"/>
              <path id="Path_1026" data-name="Path 1026" d="M1665.753,524.983a3.876,3.876,0,0,1-3.793-3.116l-.979-4.929,7.59-1.508.98,4.929a3.878,3.878,0,0,1-3.041,4.549A3.944,3.944,0,0,1,1665.753,524.983Zm-4.244-7.69.892,4.486a3.415,3.415,0,0,0,6.193,1.231,3.386,3.386,0,0,0,.514-2.565l-.891-4.487Z" transform="translate(-1660.98 -515.43)"/>
            </g>
            <g id="Group_8130" data-name="Group 8130">
              <path id="Path_1027" data-name="Path 1027" d="M1663.263,469.258l.936,4.708-7.148,1.421-.936-4.708a3.644,3.644,0,0,1,7.148-1.421Z" transform="translate(-1655.819 -466.099)" fill="#d4721b"/>
              <path id="Path_1028" data-name="Path 1028" d="M1655.6,474.374l-.98-4.929a3.869,3.869,0,0,1,7.59-1.508l.979,4.929Zm2.815-9.1a3.352,3.352,0,0,0-.667.066,3.422,3.422,0,0,0-2.686,4.02l.892,4.487,6.706-1.333-.892-4.488a3.438,3.438,0,0,0-3.353-2.754Z" transform="translate(-1654.542 -464.821)"/>
            </g>
          </g>
          <g id="Group_8134" data-name="Group 8134" transform="translate(181.566 11.887)">
            <g id="Group_8132" data-name="Group 8132">
              <path id="Path_1029" data-name="Path 1029" d="M1612.231,517.714l-3.394-3.394a3.644,3.644,0,1,1,5.153-5.153l3.394,3.394Z" transform="translate(-1607.546 -507.878)" fill="#d4721b"/>
              <path id="Path_1030" data-name="Path 1030" d="M1610.944,516.754l-3.553-3.553a3.866,3.866,0,0,1,2.736-6.6h0a3.838,3.838,0,0,1,2.736,1.13l3.553,3.553Zm-.817-9.7h0a3.415,3.415,0,0,0-2.417,5.832l3.235,3.235,4.835-4.835-3.235-3.235A3.393,3.393,0,0,0,1610.127,507.051Z" transform="translate(-1606.26 -506.6)"/>
            </g>
            <g id="Group_8133" data-name="Group 8133" transform="translate(4.366 4.363)">
              <path id="Path_1031" data-name="Path 1031" d="M1640.835,546.318l-3.4-3.4,5.153-5.153,3.4,3.4a3.644,3.644,0,0,1-5.153,5.153Z" transform="translate(-1637.121 -537.45)" fill="#fff"/>
              <path id="Path_1032" data-name="Path 1032" d="M1641.61,545.8a3.838,3.838,0,0,1-2.736-1.13h0l-3.555-3.555,5.472-5.471,3.554,3.555a3.866,3.866,0,0,1-2.736,6.6Zm-5.653-4.683,3.234,3.235a3.419,3.419,0,0,0,4.835-4.835l-3.234-3.235Z" transform="translate(-1635.32 -535.64)"/>
            </g>
          </g>
          <g id="Group_8137" data-name="Group 8137" transform="translate(164.905 45.786)">
            <g id="Group_8135" data-name="Group 8135">
              <path id="Path_1033" data-name="Path 1033" d="M1505.717,745.767l-5.652-2.577a4.715,4.715,0,1,1,3.911-8.58l5.652,2.576Z" transform="translate(-1497.015 -733.895)" fill="#d4721b"/>
              <path id="Path_1034" data-name="Path 1034" d="M1504.206,744.5l-5.917-2.7a5,5,0,0,1,.326-9.239h0a4.975,4.975,0,0,1,3.828.129l5.916,2.7Zm-5.388-11.391h0a4.417,4.417,0,0,0-.288,8.162l5.386,2.455,3.668-8.049-5.386-2.455A4.4,4.4,0,0,0,1498.818,733.108Z" transform="translate(-1495.36 -732.241)"/>
            </g>
            <g id="Group_8136" data-name="Group 8136" transform="translate(8.314 2.904)">
              <path id="Path_1035" data-name="Path 1035" d="M1558.932,765.3l-5.652-2.577,3.911-8.581,5.652,2.577a4.715,4.715,0,0,1-3.91,8.581Z" transform="translate(-1552.892 -753.754)" fill="#fff"/>
              <path id="Path_1036" data-name="Path 1036" d="M1560.446,763.508a4.967,4.967,0,0,1-3.828-.129h0l-5.918-2.7,4.152-9.112,5.918,2.7a5,5,0,0,1-.325,9.241Zm-8.972-3.114,5.388,2.455a4.424,4.424,0,0,0,3.669-8.051l-5.387-2.455Z" transform="translate(-1550.7 -751.57)"/>
            </g>
          </g>
        </g>
      </g>
    </g>
  </g>
</svg>
