<svg xmlns="http://www.w3.org/2000/svg" xmlns:xlink="http://www.w3.org/1999/xlink" width="279.556" height="304.086" viewBox="0 0 279.556 304.086">
  <defs>
    <clipPath id="clip-path">
      <path id="Path_1503" data-name="Path 1503" d="M748.237,327.76l.167,255.458a11.085,11.085,0,0,1-11.076,11.092l-120.758.079a11.085,11.085,0,0,1-11.092-11.076l-.167-255.458Z" transform="translate(-605.31 -327.76)"/>
    </clipPath>
  </defs>
  <g id="Group_8306" data-name="Group 8306" transform="translate(-88 -137.728)">
    <g id="_783_Converted_" data-name="783 [Converted]" transform="translate(88 137.729)">
      <g id="BACKGROUND" transform="translate(221.338 112.778)">
        <rect id="Rectangle_1668" data-name="Rectangle 1668" width="0.45" height="5.624" transform="translate(0 0)" fill="#fff"/>
      </g>
      <g id="OBJECT" transform="translate(0 0)">
        <g id="Group_8304" data-name="Group 8304" transform="translate(0 0)">
          <path id="Path_1416" data-name="Path 1416" d="M447.625,571.859c-54.23-4.463-97.305-42.546-85.671-124.049S433.811,292.795,515.932,314.5s57.485,93.7,101.968,118.949,16.264,101.9-45.588,119.69S492.234,575.53,447.625,571.859Z" transform="translate(-360.042 -310.646)" fill="#c5dbb2"/>
          <g id="Group_8295" data-name="Group 8295" transform="translate(55.172 3.85)">
            <g id="Group_8220" data-name="Group 8220" transform="translate(10.719 30.406)">
              <path id="Path_1417" data-name="Path 1417" d="M784.949,714.9l-114.759.074A15.577,15.577,0,0,1,654.6,699.41l-.144-219.33a15.576,15.576,0,0,1,15.566-15.587l114.759-.074a15.577,15.577,0,0,1,15.586,15.566l.144,219.33A15.573,15.573,0,0,1,784.949,714.9Z" transform="translate(-654.123 -464.085)"/>
              <path id="Path_1418" data-name="Path 1418" d="M669.017,714.162a15.913,15.913,0,0,1-15.913-15.9l-.144-219.33A15.93,15.93,0,0,1,668.864,463l114.759-.074h.011a15.934,15.934,0,0,1,15.915,15.9l.144,219.33a15.93,15.93,0,0,1-15.9,15.924v0l-114.759.074ZM783.634,463.6h-.009l-114.759.074a15.255,15.255,0,0,0-15.229,15.249l.144,219.33a15.237,15.237,0,0,0,15.238,15.229h.011l114.759-.074a15.253,15.253,0,0,0,15.229-15.249l-.144-219.33A15.257,15.257,0,0,0,783.634,463.6Z" transform="translate(-652.96 -462.93)"/>
            </g>
            <g id="Group_8221" data-name="Group 8221" transform="translate(5.32 30.408)">
              <path id="Path_1419" data-name="Path 1419" d="M776.374,480.012l.144,219.332a15.579,15.579,0,0,1-15.569,15.586L646.188,715A15.576,15.576,0,0,1,630.6,699.44l-.144-219.332a15.527,15.527,0,0,1,5.392-11.787v0h0a15.514,15.514,0,0,1,10.172-3.795l114.759-.074a15.521,15.521,0,0,1,10.181,3.784h0v0A15.512,15.512,0,0,1,776.374,480.012Z" transform="translate(-630.123 -464.11)" fill="#fff"/>
              <path id="Path_1420" data-name="Path 1420" d="M645.017,714.172a15.93,15.93,0,0,1-15.913-15.9l-.144-219.332A15.9,15.9,0,0,1,634.352,467v-.184h.214a15.9,15.9,0,0,1,10.3-3.8l114.761-.074h.011a15.915,15.915,0,0,1,10.3,3.784h.214v.184a15.906,15.906,0,0,1,5.408,11.936l.144,219.332A15.913,15.913,0,0,1,759.791,714.1l-114.761.074ZM634.908,467.408a15.24,15.24,0,0,0-5.27,11.531l.144,219.332A15.255,15.255,0,0,0,645.019,713.5h.009l114.761-.074a15.238,15.238,0,0,0,15.231-15.247l-.144-219.332a15.233,15.233,0,0,0-5.289-11.526l-.029-.025a15.244,15.244,0,0,0-9.922-3.678h-.009l-114.761.074a15.221,15.221,0,0,0-9.952,3.714Z" transform="translate(-628.96 -462.94)"/>
            </g>
            <g id="Group_8222" data-name="Group 8222" transform="translate(10.442 47.959)">
              <path id="Path_1421" data-name="Path 1421" d="M663.888,770.413a10.527,10.527,0,0,1-10.516-10.507l-.142-217.348,135.791-.088.142,217.35a10.526,10.526,0,0,1-10.507,10.521l-114.761.074h-.007Z" transform="translate(-652.893 -542.13)" fill="#c5dbb2"/>
              <path id="Path_1422" data-name="Path 1422" d="M787.521,541.635l.142,217.01a10.188,10.188,0,0,1-10.17,10.183l-114.761.074h-.007a10.19,10.19,0,0,1-10.179-10.17l-.142-217.01,135.116-.088Zm.675-.675h-.675l-135.116.088h-.675v.675l.142,217.01a10.867,10.867,0,0,0,10.854,10.845l114.768-.074a10.864,10.864,0,0,0,10.845-10.858l-.142-217.01v-.675Z" transform="translate(-651.73 -540.96)"/>
            </g>
            <g id="Group_8223" data-name="Group 8223" transform="translate(66.074 37.276)">
              <path id="Path_1423" data-name="Path 1423" d="M902.532,498.99l27.821-.018a2.007,2.007,0,0,0,2-2h0a2.007,2.007,0,0,0-2-2l-27.821.018a2.007,2.007,0,0,0-2,2h0A2.009,2.009,0,0,0,902.532,498.99Z" transform="translate(-900.195 -494.633)" fill="#769e49"/>
              <path id="Path_1424" data-name="Path 1424" d="M901.377,498.165a2.338,2.338,0,0,1,0-4.677l27.821-.018h0a2.338,2.338,0,0,1,0,4.677l-27.824.018Zm27.821-4.02h0l-27.821.018a1.664,1.664,0,0,0,0,3.327h0l27.821-.018a1.663,1.663,0,0,0,0-3.327Z" transform="translate(-899.04 -493.47)" fill="#769e49"/>
            </g>
            <g id="Group_8224" data-name="Group 8224" transform="translate(107.494 36.211)">
              <ellipse id="Ellipse_588" data-name="Ellipse 588" cx="2.904" cy="2.904" rx="2.904" ry="2.904" transform="translate(0 1.081) rotate(-10.731)" fill="#769e49"/>
              <path id="Path_1425" data-name="Path 1425" d="M1087.112,495.893a3.241,3.241,0,0,1,0-6.483h0a3.241,3.241,0,0,1,0,6.483Zm0-5.808h0a2.567,2.567,0,0,0,0,5.133h0a2.57,2.57,0,0,0,2.564-2.567,2.573,2.573,0,0,0-2.567-2.567Z" transform="translate(-1083.714 -489.258)" fill="#769e49"/>
            </g>
            <g id="Group_8292" data-name="Group 8292">
              <g id="XMLID_124_" transform="translate(13.735 60.504)">
                <g id="Group_8227" data-name="Group 8227">
                  <g id="Group_8225" data-name="Group 8225" transform="translate(0 14.282)">
                    <path id="Path_1426" data-name="Path 1426" d="M679.41,853.555a11.437,11.437,0,0,1-11.423-11.414l-.117-180.335,129.241-.086.117,180.335a11.435,11.435,0,0,1-11.414,11.429l-106.4.07Z" transform="translate(-667.533 -661.383)" fill="#c5dbb2"/>
                    <path id="Path_1427" data-name="Path 1427" d="M795.611,660.895l.117,180a11.085,11.085,0,0,1-11.076,11.092l-106.4.07h-.007a11.082,11.082,0,0,1-11.083-11.076l-.117-180,128.564-.086Zm.675-.675h-.675l-128.566.083h-.675v.675l.117,180a11.773,11.773,0,0,0,11.758,11.751l106.406-.07A11.772,11.772,0,0,0,796.4,840.89l-.117-180v-.673Z" transform="translate(-666.37 -660.22)"/>
                  </g>
                  <g id="Group_8226" data-name="Group 8226" transform="translate(0.331)">
                    <path id="Path_1428" data-name="Path 1428" d="M797.916,604.125l.007,8.717-128.566.083-.007-8.719a5.923,5.923,0,0,1,5.9-5.909l116.756-.076A5.928,5.928,0,0,1,797.916,604.125Z" transform="translate(-669.01 -597.885)" fill="#769e49"/>
                    <path id="Path_1429" data-name="Path 1429" d="M667.847,612.11l-.007-9.056a6.259,6.259,0,0,1,6.24-6.247l116.756-.077h0a6.251,6.251,0,0,1,6.242,6.24l.007,9.054Zm122.992-14.7h0l-116.756.076a5.584,5.584,0,0,0-5.565,5.572l0,8.381,127.891-.083,0-8.379A5.571,5.571,0,0,0,790.839,597.4Z" transform="translate(-667.84 -596.73)"/>
                  </g>
                </g>
              </g>
              <g id="Group_8228" data-name="Group 8228" transform="translate(23.469 65.869)">
                <path id="Path_1430" data-name="Path 1430" d="M714.572,623.78a1.711,1.711,0,1,1-1.712-1.71A1.711,1.711,0,0,1,714.572,623.78Z" transform="translate(-710.81 -621.735)" fill="#fff"/>
                <path id="Path_1431" data-name="Path 1431" d="M711.689,624.676a2.048,2.048,0,0,1,0-4.1h0a2.048,2.048,0,1,1,0,4.1Zm0-3.424h0a1.373,1.373,0,1,0,0,2.747h0a1.373,1.373,0,1,0,0-2.747Z" transform="translate(-709.64 -620.58)"/>
              </g>
              <g id="Group_8229" data-name="Group 8229" transform="translate(32.311 65.862)">
                <path id="Path_1432" data-name="Path 1432" d="M753.871,623.76a1.711,1.711,0,1,1-1.712-1.71A1.711,1.711,0,0,1,753.871,623.76Z" transform="translate(-750.113 -621.713)" fill="#fff"/>
                <path id="Path_1433" data-name="Path 1433" d="M751,624.646a2.048,2.048,0,0,1,0-4.1h0a2.047,2.047,0,0,1,2.047,2.047h0A2.047,2.047,0,0,1,751,624.646Zm0-3.422h0a1.374,1.374,0,0,0,0,2.749h0a1.375,1.375,0,0,0,1.374-1.374h0A1.375,1.375,0,0,0,751,621.225Z" transform="translate(-748.95 -620.55)"/>
              </g>
              <g id="Group_8230" data-name="Group 8230" transform="translate(40.7 65.858)">
                <path id="Path_1434" data-name="Path 1434" d="M791.162,623.73a1.711,1.711,0,1,1-1.712-1.71A1.711,1.711,0,0,1,791.162,623.73Z" transform="translate(-787.403 -621.685)" fill="#fff"/>
                <path id="Path_1435" data-name="Path 1435" d="M788.289,624.626a2.048,2.048,0,1,1,0-4.1h0a2.052,2.052,0,0,1,2.049,2.047h0a2.054,2.054,0,0,1-2.049,2.049Zm0-3.424h0a1.374,1.374,0,0,0,0,2.749h0a1.372,1.372,0,0,0,1.372-1.374h0a1.375,1.375,0,0,0-1.372-1.374Z" transform="translate(-786.24 -620.53)"/>
              </g>
              <g id="Group_8291" data-name="Group 8291">
                <g id="XMLID_122_" clip-path="url(#clip-path)">
                  <g id="Group_8249" data-name="Group 8249" transform="translate(65.689 199.602)">
                    <g id="Group_8231" data-name="Group 8231" transform="translate(0 121.21)">
                      <path id="Path_1436" data-name="Path 1436" d="M903.953,1755.63a4.071,4.071,0,0,1,2.126,4.879H899.02a4.263,4.263,0,0,1,2.067-3.167C902.21,1756.681,903.134,1756.127,903.953,1755.63Z" transform="translate(-898.64 -1755.248)" fill="#0944f4"/>
                      <path id="Path_1437" data-name="Path 1437" d="M905.014,1759.529H897.33l.045-.378a4.63,4.63,0,0,1,2.231-3.417c1.237-.731,2.121-1.26,2.864-1.71l.157-.095.166.081c.034.016,3.453,1.723,2.3,5.286Zm-6.906-.675h6.409a3.645,3.645,0,0,0-1.863-4.152c-.711.432-1.554.936-2.7,1.615A3.946,3.946,0,0,0,898.108,1758.854Z" transform="translate(-897.33 -1753.93)"/>
                    </g>
                    <g id="Group_8232" data-name="Group 8232" transform="translate(30.736 115.398)">
                      <path id="Path_1438" data-name="Path 1438" d="M1041.259,1730.866v4.98c-6.469-.081-5.759-5.822-5.759-5.822,2.589-.167,4.134-.385,4.409-.427l.047-.007h.022A1.276,1.276,0,0,1,1041.259,1730.866Z" transform="translate(-1035.138 -1729.252)" fill="#0944f4"/>
                      <path id="Path_1439" data-name="Path 1439" d="M1040.428,1735.025l-.342,0a6.179,6.179,0,0,1-4.8-1.86,6.02,6.02,0,0,1-1.284-4.339l.034-.277.279-.018c2.756-.178,4.315-.414,4.38-.425l.121-.011a1.617,1.617,0,0,1,1.617,1.615Zm-5.779-5.847a4.743,4.743,0,0,0,5.1,5.156V1729.7a.943.943,0,0,0-.936-.94.189.189,0,0,1-.038,0C1038.727,1728.778,1037.251,1729,1034.649,1729.179Z" transform="translate(-1033.969 -1728.09)"/>
                    </g>
                    <g id="Group_8233" data-name="Group 8233" transform="translate(4.607 115.382)">
                      <path id="Path_1440" data-name="Path 1440" d="M928.549,1730.67c.524-.331,1.089-.691,1.71-1.08,0,0,.729.1,2,.223,1.86.178,4.884.394,8.5.394.319,0,.637,0,.94-.007,1.955-.016,3.644-.086,5.034-.173,0,0-.711,5.741,5.759,5.822v4.483H923.076a4.07,4.07,0,0,0-2.126-4.879c1.716-1.046,2.985-1.851,4.722-2.951C926.493,1731.97,927.422,1731.378,928.549,1730.67Z" transform="translate(-920.244 -1729.237)" fill="#fff"/>
                      <path id="Path_1441" data-name="Path 1441" d="M950.4,1739.447H920.177l.144-.441a3.7,3.7,0,0,0-1.953-4.472l-.558-.27.529-.322c1.617-.985,2.859-1.772,4.429-2.767l.286-.182c.783-.5,1.7-1.084,2.877-1.829l.5-.317c.38-.241.781-.495,1.208-.763l.1-.065.121.016c.007,0,.738.1,1.989.222,1.874.178,4.865.392,8.469.392.313-.009.63,0,.933-.007,1.755-.014,3.442-.072,5.021-.173l.407-.027-.049.405a5.426,5.426,0,0,0,1.129,3.817,5.531,5.531,0,0,0,4.3,1.624l.333,0Zm-29.313-.675h28.638v-3.817a6.012,6.012,0,0,1-4.472-1.851,5.88,5.88,0,0,1-1.311-3.937c-1.48.088-3.05.137-4.672.151-.3.007-.621.007-.945.007-3.628,0-6.645-.216-8.534-.4-.969-.094-1.633-.176-1.894-.209q-.584.368-1.1.7l-.5.319c-1.179.742-2.092,1.323-2.875,1.827l-.288.182c-1.419.9-2.569,1.626-3.97,2.486A4.273,4.273,0,0,1,921.085,1738.772Z" transform="translate(-917.81 -1728.02)"/>
                    </g>
                    <g id="Group_8234" data-name="Group 8234" transform="translate(63.12 111.744)">
                      <path id="Path_1442" data-name="Path 1442" d="M1200.292,1713.35V1717a.252.252,0,0,0-.047.007c-.5.054-5,.54-9.443.6-.3.007-.621.007-.94.007-3.806,0-6.958-.238-8.784-.421-1.057-.113-1.646-.2-1.646-.2v-3.653h20.862Z" transform="translate(-1179.093 -1713.012)" fill="#fff"/>
                      <path id="Path_1443" data-name="Path 1443" d="M1188.7,1716.794c-3.975,0-7.23-.266-8.816-.423-1.053-.112-1.638-.2-1.662-.2l-.29-.041v-4.283h21.534v4.328l-.346.007c-.832.09-5.2.544-9.475.6C1189.339,1716.794,1189.02,1716.794,1188.7,1716.794Zm-10.094-1.251c.272.036.731.092,1.345.157,1.572.155,4.8.418,8.748.418.324,0,.63,0,.933-.007,3.916-.054,7.914-.443,9.16-.574v-3.014h-20.184v3.019Z" transform="translate(-1177.93 -1711.85)"/>
                    </g>
                    <g id="Group_8235" data-name="Group 8235" transform="translate(48.213 0.002)">
                      <path id="Path_1444" data-name="Path 1444" d="M1150.318,1326.323l-2.963-97.717-.367.011a11.707,11.707,0,0,1-2.349-.232,12.026,12.026,0,0,1-9.677-11.8H1113.35l4.582,38.488,8.478,71.247.238,2.007h23.732Z" transform="translate(-1112.97 -1216.255)" fill="#fff"/>
                      <path id="Path_1445" data-name="Path 1445" d="M1149.417,1327.517H1125.04L1111.66,1215.1h22.33v.338a11.71,11.71,0,0,0,9.405,11.465,11.559,11.559,0,0,0,2.283.225l.693-.022.009.337,2.963,97.717Zm-23.779-.675h23.082l-.052-1.662-2.951-97.379h-.031a12.228,12.228,0,0,1-2.425-.239,12.382,12.382,0,0,1-9.943-11.789h-20.9l4.537,38.11Z" transform="translate(-1111.66 -1215.1)"/>
                    </g>
                    <g id="Group_8236" data-name="Group 8236" transform="translate(14.354 111.742)">
                      <path id="Path_1446" data-name="Path 1446" d="M983.519,1713.35V1717a.252.252,0,0,0-.047.007c-.5.054-5,.54-9.443.6-.3.007-.621.007-.94.007-3.617,0-6.643-.216-8.5-.394-1.235-.124-1.928-.223-1.928-.223v-3.653h20.859Z" transform="translate(-962.318 -1713.01)" fill="#fff"/>
                      <path id="Path_1447" data-name="Path 1447" d="M971.91,1716.787c-3.628,0-6.645-.216-8.534-.4-1.228-.124-1.917-.223-1.946-.225l-.29-.043v-4.283h21.534v4.328l-.346.007c-.832.09-5.2.545-9.475.6C972.552,1716.787,972.232,1716.787,971.91,1716.787Zm-10.093-1.251c.313.04.868.108,1.624.184,1.874.178,4.866.391,8.467.391.315.007.63,0,.934-.007,3.916-.054,7.914-.443,9.16-.574v-3.014H961.817Z" transform="translate(-961.14 -1711.84)"/>
                    </g>
                    <g id="Group_8237" data-name="Group 8237" transform="translate(12.743 0.005)">
                      <path id="Path_1448" data-name="Path 1448" d="M991.145,1216.6h-8.7c0,5.579-3.518,10.269-9.756,11.63a18.131,18.131,0,0,1-3.858.4l-12.883,97.706-.265,2.009h24.184l.436-2.009,15.425-71.245Z" transform="translate(-955.298 -1216.265)" fill="#fff"/>
                      <path id="Path_1449" data-name="Path 1449" d="M978.823,1327.525H953.98l.317-2.391,12.921-98h.3a17.851,17.851,0,0,0,3.786-.389c5.853-1.278,9.488-5.608,9.488-11.3v-.337h9.34l4.625,38.842-.011.056Zm-24.074-.675h23.529l.378-1.743,15.413-71.189-4.54-38.135h-8.069c-.142,5.86-3.952,10.3-10.017,11.623a18.328,18.328,0,0,1-3.633.4l-12.844,97.415Z" transform="translate(-953.98 -1215.11)"/>
                    </g>
                    <path id="Path_1450" data-name="Path 1450" d="M934.979,1777.312v.162a1.622,1.622,0,0,1-1.626,1.615H899.424a1.275,1.275,0,0,1-.907-.373,1.258,1.258,0,0,1-.378-.9,4.2,4.2,0,0,1,.031-.506h36.808Z" transform="translate(-897.958 -1650.841)"/>
                    <g id="Group_8240" data-name="Group 8240" transform="translate(25.894)">
                      <path id="Path_1451" data-name="Path 1451" d="M1113.34,1216.6l1.48,52.82,3.1-14.334Z" transform="translate(-1090.643 -1216.26)"/>
                      <g id="Group_8238" data-name="Group 8238" transform="translate(43.973)">
                        <path id="Path_1452" data-name="Path 1452" d="M1221.456,1216.593l.367,12.014-.367.011a11.706,11.706,0,0,1-2.348-.232,12.026,12.026,0,0,1-9.677-11.8h12.026Z" transform="translate(-1209.09 -1216.253)" fill="#fff"/>
                        <path id="Path_1453" data-name="Path 1453" d="M1220.292,1227.793a12.229,12.229,0,0,1-2.425-.238,12.383,12.383,0,0,1-9.947-12.127v-.337h12.691l.387,12.68-.7.022Zm-11.693-12.026a11.708,11.708,0,0,0,9.4,11.128,11.551,11.551,0,0,0,2.283.225h.018l-.347-11.351H1208.6Z" transform="translate(-1207.92 -1215.09)"/>
                      </g>
                      <g id="Group_8239" data-name="Group 8239" transform="translate(0 0)">
                        <path id="Path_1454" data-name="Path 1454" d="M1015.726,1216.6h12.028c0,5.579-3.518,10.269-9.756,11.63a18.132,18.132,0,0,1-3.858.4Z" transform="translate(-1013.758 -1216.26)" fill="#fff"/>
                        <path id="Path_1455" data-name="Path 1455" d="M1012.825,1227.793h-.385l1.674-12.7h12.66v.337c0,6.026-3.84,10.611-10.021,11.96A18.461,18.461,0,0,1,1012.825,1227.793Zm1.88-12.026-1.5,11.349a17.742,17.742,0,0,0,3.4-.385c5.736-1.253,9.344-5.437,9.486-10.962h-11.391Z" transform="translate(-1012.44 -1215.09)"/>
                      </g>
                    </g>
                    <g id="Group_8248" data-name="Group 8248" transform="translate(59.525 115.395)">
                      <g id="Group_8244" data-name="Group 8244">
                        <g id="XMLID_126_">
                          <g id="Group_8243" data-name="Group 8243">
                            <g id="Group_8241" data-name="Group 8241" transform="translate(0.859)">
                              <path id="Path_1456" data-name="Path 1456" d="M1191.617,1729.59l2.189,7.572h-.081c-1.413-2.333-4.184-1.712-7.437-1.712h-11c-3.255,0-6.139-.623-7.549,1.712h0l2.133-7.572Z" transform="translate(-1167.289 -1729.25)" fill="#fff"/>
                              <path id="Path_1457" data-name="Path 1457" d="M1192.737,1736.327h-.72l-.1-.162c-1.055-1.743-2.985-1.676-5.428-1.588-.553.02-1.127.041-1.719.041h-11c-.589,0-1.165-.02-1.723-.041-2.5-.088-4.483-.157-5.538,1.588l-.1.162h-.637l.117-.43,2.2-7.817h22.263Zm-4.785-2.461a5.71,5.71,0,0,1,3.631.9l-1.739-6.015H1168.6l-1.678,5.956c1.3-.944,3.116-.882,5.145-.812.551.02,1.12.038,1.7.038h11c.58,0,1.147-.02,1.694-.041C1186.976,1733.884,1187.473,1733.866,1187.952,1733.866Z" transform="translate(-1165.77 -1728.08)"/>
                            </g>
                            <g id="Group_8242" data-name="Group 8242" transform="translate(0 5.785)">
                              <path id="Path_1458" data-name="Path 1458" d="M1191.377,1760.476v.529H1163.45v-.529a6.524,6.524,0,0,1,.965-3.394h0c1.413-2.333,4.584-1.712,7.839-1.712h11c3.253,0,5.734-.623,7.147,1.712A6.484,6.484,0,0,1,1191.377,1760.476Z" transform="translate(-1163.112 -1754.958)" fill="#0944f4"/>
                              <path id="Path_1459" data-name="Path 1459" d="M1190.552,1760.183h-28.6v-.866a6.929,6.929,0,0,1,1.012-3.57l.108-.162c1.293-1.921,3.736-1.838,6.319-1.75.558.018,1.134.038,1.7.038h11c.587,0,1.147-.02,1.687-.04,2.409-.088,4.49-.164,5.747,1.914a6.747,6.747,0,0,1,1.017,3.57v.866Zm-27.927-.675h27.252v-.191a6.083,6.083,0,0,0-.918-3.219c-1.053-1.741-2.771-1.678-5.147-1.591-.547.02-1.114.041-1.712.041h-11c-.583,0-1.165-.021-1.728-.038-2.558-.088-4.764-.162-5.824,1.588l-.1.162a6.122,6.122,0,0,0-.821,3.057Z" transform="translate(-1161.95 -1753.798)"/>
                            </g>
                            <rect id="Rectangle_1669" data-name="Rectangle 1669" width="28.341" height="1.779" transform="translate(0.13 11.076)"/>
                          </g>
                        </g>
                      </g>
                      <g id="Group_8245" data-name="Group 8245" transform="translate(7.828 1.323)">
                        <path id="Path_1460" data-name="Path 1460" d="M1209.136,1734.347h-12.192a.193.193,0,1,1,0-.387h12.192a.193.193,0,0,1,0,.387Z" transform="translate(-1196.75 -1733.96)"/>
                      </g>
                      <g id="Group_8246" data-name="Group 8246" transform="translate(7.828 2.483)">
                        <path id="Path_1461" data-name="Path 1461" d="M1209.136,1739.507h-12.192a.193.193,0,1,1,0-.387h12.192a.193.193,0,0,1,.193.193A.2.2,0,0,1,1209.136,1739.507Z" transform="translate(-1196.75 -1739.12)"/>
                      </g>
                      <g id="Group_8247" data-name="Group 8247" transform="translate(7.828 3.644)">
                        <path id="Path_1462" data-name="Path 1462" d="M1209.136,1744.667h-12.192a.193.193,0,1,1,0-.387h12.192a.193.193,0,0,1,.193.194A.2.2,0,0,1,1209.136,1744.667Z" transform="translate(-1196.75 -1744.28)"/>
                      </g>
                    </g>
                  </g>
                  <g id="Group_8255" data-name="Group 8255" transform="translate(83.685 132.31)">
                    <g id="Group_8250" data-name="Group 8250" transform="translate(0 0.233)">
                      <path id="Path_1463" data-name="Path 1463" d="M1049.1,1033.525c-11.083,1.728-20.8,2.706-29.2,3.192q-4.467.26-8.433.342c-21.986.493-32.521-2.524-32.521-2.524l6.24-53.9,1.311-26.2.459-9.2a31.1,31.1,0,0,1,.243-3.9c.088-.718.2-1.424.34-2.126,1.75-8.921,7.345-16.421,15.407-19.384a22.124,22.124,0,0,1,7.032-1.35c.25-.011.506-.016.76-.016h9.769c.63,0,1.251.023,1.86.074a21.863,21.863,0,0,1,4.76.907l0,0c9.643,2.967,16.1,12.325,17.1,23.032.016.151.027.3.038.452.065.787.1,1.581.1,2.38v.124l1.694,35.218Z" transform="translate(-978.586 -918.127)" fill="#fff"/>
                      <path id="Path_1464" data-name="Path 1464" d="M1005.482,1036.3c-18.6,0-27.779-2.562-27.878-2.589l-.274-.079.034-.284,6.24-53.895,1.768-35.38a31.682,31.682,0,0,1,.245-3.93c.09-.729.2-1.453.344-2.148,1.84-9.376,7.68-16.716,15.62-19.633a22.569,22.569,0,0,1,7.138-1.37c.225-.011.479-.016.769-.016h9.769c.652,0,1.287.025,1.887.074a22.488,22.488,0,0,1,4.832.92l.081.027c9.434,2.94,16.207,12.075,17.263,23.3.015.151.027.3.038.457.063.76.1,1.568.1,2.4v.124l1.694,35.2,3.046,53.18-.3.047c-10.188,1.586-20.02,2.661-29.227,3.194-2.859.166-5.7.281-8.445.342Q1007.76,1036.3,1005.482,1036.3Zm-27.417-3.167c1.8.457,12.395,2.882,32.145,2.436,2.738-.061,5.57-.175,8.42-.342,9.092-.526,18.8-1.583,28.861-3.14l-3.012-52.57-1.694-35.22v-.139c0-.816-.038-1.608-.1-2.353-.011-.151-.023-.3-.038-.445-1.032-10.984-7.653-19.91-16.866-22.744l-.081-.027a21.668,21.668,0,0,0-4.609-.868c-.583-.047-1.2-.072-1.833-.072h-9.769c-.281,0-.524,0-.745.016a21.9,21.9,0,0,0-6.931,1.329c-7.718,2.837-13.4,9.988-15.193,19.132-.135.682-.247,1.388-.335,2.1a30.853,30.853,0,0,0-.241,3.862l-.459,9.221-1.311,26.2Z" transform="translate(-977.33 -916.98)"/>
                    </g>
                    <g id="Group_8251" data-name="Group 8251" transform="translate(21.946 0.229)">
                      <path id="Path_1465" data-name="Path 1465" d="M1087.718,963.463l-9.565-30.231,1.752-1.766-3.091-.972c-1.528-4.171,1.667-10.669,1.667-10.669a22.126,22.126,0,0,1,7.032-1.35c.25-.011.506-.016.76-.016h9.769c.63,0,1.251.023,1.86.074a21.867,21.867,0,0,1,4.76.907l0,0a16.229,16.229,0,0,1,0,9.616l-3.21,1.829,2.353,2.213L1087,970.063Z" transform="translate(-1076.061 -918.123)" fill="#fff"/>
                      <path id="Path_1466" data-name="Path 1466" d="M1086.144,969.024l-.628-.252,14.723-36.745-2.517-2.369,3.493-1.991a16.13,16.13,0,0,0,.009-9.119,21.726,21.726,0,0,0-4.521-.841c-.583-.047-1.2-.072-1.833-.072h-9.77c-.281,0-.524,0-.744.016a21.9,21.9,0,0,0-6.8,1.282c-.412.886-2.873,6.445-1.649,10.129l3.458,1.086-2,2.016,9.5,30.035-.643.2-9.628-30.424,1.5-1.518-2.72-.855-.056-.155c-1.559-4.256,1.547-10.663,1.68-10.935l.058-.121.126-.047a22.584,22.584,0,0,1,7.137-1.37c.225-.011.479-.016.769-.016h9.769c.652,0,1.287.025,1.887.074a22.5,22.5,0,0,1,4.832.92l.076.025.119.115.029.083a16.407,16.407,0,0,1,0,9.835l-.043.117-2.92,1.665,2.189,2.058-.086.214Z" transform="translate(-1074.889 -916.96)"/>
                    </g>
                    <g id="Group_8252" data-name="Group 8252" transform="translate(30.44 6.142)">
                      <path id="Path_1467" data-name="Path 1467" d="M1114.36,947.812l4.974,16.124,6.391-16.763-1.7-1.622-3.311,1.955-3.633-2.346Z" transform="translate(-1113.975 -944.73)" fill="#769e49"/>
                      <path id="Path_1468" data-name="Path 1468" d="M1117.975,963.491l-5.325-17.258,3.066-2.983,3.682,2.38,3.352-1.979,2.042,1.955Zm-4.558-17.062,4.625,14.99L1124,945.781l-1.35-1.291-3.271,1.932-3.581-2.315Z" transform="translate(-1112.65 -943.25)"/>
                    </g>
                    <g id="Group_8253" data-name="Group 8253" transform="translate(28.549)">
                      <path id="Path_1469" data-name="Path 1469" d="M1106.35,917.848s-1.615,7.025.439,9.371l3.617-3.52a8.044,8.044,0,0,0,3.631,2.346,16.3,16.3,0,0,0,3.311-1.955l3.271,3.129s1.541-2.607,1.579-9.272C1122.2,917.947,1111.632,916.944,1106.35,917.848Z" transform="translate(-1105.409 -917.127)" fill="#769e49"/>
                      <path id="Path_1470" data-name="Path 1470" d="M1119.533,926.574l-3.368-3.221a16.746,16.746,0,0,1-3.158,1.822l-.1.043-.108-.027a8.011,8.011,0,0,1-3.565-2.193l-3.626,3.527-.234-.268c-2.142-2.45-.583-9.376-.515-9.671l.049-.218.223-.038c5.264-.9,15.506.054,15.94.094l.308.029,0,.308c-.038,6.681-1.561,9.333-1.626,9.443Zm-14.064-9.614c-.236,1.138-1.215,6.386.2,8.568l3.6-3.5.234.272a7.873,7.873,0,0,0,3.345,2.211,15.812,15.812,0,0,0,3.131-1.865l.23-.184,3.147,3.012a22.782,22.782,0,0,0,1.343-8.4C1118.948,916.919,1110.2,916.22,1105.47,916.96Z" transform="translate(-1104.245 -915.944)"/>
                    </g>
                    <g id="Group_8254" data-name="Group 8254" transform="translate(32.547 25.332)">
                      <rect id="Rectangle_1670" data-name="Rectangle 1670" width="0.675" height="66.998" transform="translate(0.003 26.835)"/>
                      <rect id="Rectangle_1671" data-name="Rectangle 1671" width="26.976" height="0.675" transform="matrix(0.108, -0.994, 0.994, 0.108, 0, 26.816)"/>
                    </g>
                  </g>
                  <g id="Group_8263" data-name="Group 8263" transform="translate(99.872 130.142)">
                    <g id="Group_8256" data-name="Group 8256" transform="translate(30.85 20.246)">
                      <circle id="Ellipse_589" data-name="Ellipse 589" cx="3.325" cy="3.325" r="3.325" transform="matrix(0.78, -0.626, 0.626, 0.78, 0, 4.162)" fill="#c2e6ff"/>
                      <path id="Path_1471" data-name="Path 1471" d="M1194.6,1008.052c-.078,0-.155,0-.234-.007a3.663,3.663,0,0,1-3.426-3.885h0a3.663,3.663,0,1,1,3.66,3.891Zm-.009-6.649a2.987,2.987,0,0,0-2.976,2.8h0a2.988,2.988,0,1,0,3.17-2.794C1194.724,1001.406,1194.659,1001.4,1194.6,1001.4Z" transform="translate(-1189.925 -999.734)"/>
                    </g>
                    <g id="Group_8262" data-name="Group 8262">
                      <g id="Group_8257" data-name="Group 8257" transform="translate(33.229 22.611)">
                        <path id="Path_1472" data-name="Path 1472" d="M1198.527,1010.155a1.955,1.955,0,1,0,2.074-1.829A1.956,1.956,0,0,0,1198.527,1010.155Z" transform="translate(-1198.182 -1007.984)" fill="#769e49"/>
                        <path id="Path_1473" data-name="Path 1473" d="M1199.307,1011.408c-.047,0-.1,0-.146,0a2.293,2.293,0,0,1-2.146-2.432h0a2.293,2.293,0,1,1,2.292,2.436Zm0-3.912a1.619,1.619,0,0,0-1.613,1.516h0a1.618,1.618,0,1,0,1.714-1.514C1199.372,1007.5,1199.338,1007.5,1199.3,1007.5Z" transform="translate(-1197.01 -1006.822)"/>
                      </g>
                      <g id="Group_8258" data-name="Group 8258" transform="translate(0 13.813)">
                        <path id="Path_1474" data-name="Path 1474" d="M1055.287,989.273c-.094,0-.189,0-.283-.009l.043-.673a3.887,3.887,0,0,0,4.1-3.309l1.26-10.539a5.983,5.983,0,0,0-1.3-4.533,4.9,4.9,0,0,0-7.214-.454,5.987,5.987,0,0,0-1.858,4.335l-.07,10.613a3.886,3.886,0,0,0,3.656,3.8l-.043.673a4.574,4.574,0,0,1-4.29-4.474l.07-10.613a6.656,6.656,0,0,1,2.072-4.823,5.57,5.57,0,0,1,8.192.515,6.653,6.653,0,0,1,1.451,5.045l-1.26,10.539A4.56,4.56,0,0,1,1055.287,989.273Z" transform="translate(-1049.289 -967.709)"/>
                      </g>
                      <g id="Group_8259" data-name="Group 8259" transform="translate(5.302 33.9)">
                        <path id="Path_1475" data-name="Path 1475" d="M1075,1060.163l.283.018a.691.691,0,0,0,.731-.643l.018-.284a.691.691,0,0,0-.643-.731l-.283-.018a.691.691,0,0,0-.731.643l-.018.283A.688.688,0,0,0,1075,1060.163Z" transform="translate(-1074.018 -1058.167)" fill="#0944f4"/>
                        <path id="Path_1476" data-name="Path 1476" d="M1074.169,1059.363c-.022,0-.043,0-.065,0l-.283-.018a1.028,1.028,0,0,1-.958-1.089l.018-.283a1.028,1.028,0,0,1,1.089-.958l.284.018a1.028,1.028,0,0,1,.96,1.089l-.018.283a1.02,1.02,0,0,1-.347.7A1.037,1.037,0,0,1,1074.169,1059.363Zm-.308-.693.283.018a.351.351,0,0,0,.254-.088.359.359,0,0,0,.12-.241l.018-.283a.353.353,0,0,0-.328-.374l-.283-.018a.351.351,0,0,0-.373.328l-.018.284a.347.347,0,0,0,.088.254.361.361,0,0,0,.241.119Z" transform="translate(-1072.86 -1057.01)"/>
                      </g>
                      <g id="Group_8260" data-name="Group 8260" transform="translate(2.396 33.716)">
                        <path id="Path_1477" data-name="Path 1477" d="M1062.372,1059.371l-.283-.018a.691.691,0,0,1-.643-.731l.018-.283a.691.691,0,0,1,.731-.643l.283.018a.69.69,0,0,1,.643.731l-.018.283A.691.691,0,0,1,1062.372,1059.371Z" transform="translate(-1061.106 -1057.356)" fill="#0944f4"/>
                        <path id="Path_1478" data-name="Path 1478" d="M1061.253,1058.547a.65.65,0,0,1-.065,0l-.283-.018a1.03,1.03,0,0,1-.961-1.089l.018-.283a1.034,1.034,0,0,1,1.089-.96l.284.018a1.027,1.027,0,0,1,.958,1.089l-.018.283A1.024,1.024,0,0,1,1061.253,1058.547Zm-.268-1.68a.351.351,0,0,0-.351.328l-.018.283a.353.353,0,0,0,.328.373l.283.018a.348.348,0,0,0,.374-.329l.018-.283a.354.354,0,0,0-.328-.373l-.283-.018Z" transform="translate(-1059.942 -1056.192)"/>
                      </g>
                      <g id="Group_8261" data-name="Group 8261" transform="translate(5.997)">
                        <path id="Path_1479" data-name="Path 1479" d="M1106.028,928.007l-.072-10.847a9.375,9.375,0,0,0-8.685-9.338l-10.2-.81a9.43,9.43,0,0,0-10.156,8.809l-.292,4.663-.673-.043.292-4.663a10.107,10.107,0,0,1,10.883-9.441l10.2.81a10.047,10.047,0,0,1,9.306,10.006L1106.7,928Z" transform="translate(-1075.95 -906.306)"/>
                      </g>
                    </g>
                  </g>
                  <g id="Group_8266" data-name="Group 8266" transform="translate(94.113 86.018)">
                    <g id="Group_8264" data-name="Group 8264" transform="translate(18.165 33.975)">
                      <path id="Path_1480" data-name="Path 1480" d="M1121,876.16s.13,4.074-5.444,4.074-6.254-3.719-6.254-3.719l-.459-2.549-.427-1.662-.448-1.728-.007-.02-1.629-6.276,16.324-1.431Z" transform="translate(-1105.905 -862.477)" fill="#fff"/>
                      <path id="Path_1481" data-name="Path 1481" d="M1114.088,879.282c-5.788,0-6.577-3.954-6.584-4l-.456-2.537-.88-3.4-1.727-6.661,17.136-1.5-1.707,13.7a4.229,4.229,0,0,1-1.179,2.819A6.172,6.172,0,0,1,1114.088,879.282Zm-7.272-10.12h0l.014.04.882,3.415.459,2.549c.027.139.718,3.442,5.921,3.442a5.532,5.532,0,0,0,4.108-1.359,3.589,3.589,0,0,0,1-2.366v-.025l0-.027,1.606-12.9-15.51,1.359Z" transform="translate(-1104.44 -861.19)"/>
                    </g>
                    <g id="Group_8265" data-name="Group 8265" transform="translate(7.966 14.875)">
                      <path id="Path_1482" data-name="Path 1482" d="M1088.141,792.031c-.272,7.592-5.041,14.61-12.633,14.336s-13.463-.236-14.858-15.326c-.7-7.565,6.647-13.524,14.239-13.252A13.755,13.755,0,0,1,1088.141,792.031Z" transform="translate(-1060.266 -777.443)" fill="#fff"/>
                      <path id="Path_1483" data-name="Path 1483" d="M1074.778,805.55c-.149,0-.3,0-.445-.009l-.364-.013c-7.5-.265-13.42-.475-14.819-15.618a11.5,11.5,0,0,1,3.266-9.018,15.039,15.039,0,0,1,11.322-4.6,14.094,14.094,0,0,1,13.578,14.59,17.352,17.352,0,0,1-3.646,10.318A11.182,11.182,0,0,1,1074.778,805.55Zm-1.557-28.593a14.358,14.358,0,0,0-10.314,4.4,10.835,10.835,0,0,0-3.084,8.492c1.345,14.552,6.724,14.743,14.172,15.006l.364.013a10.561,10.561,0,0,0,8.786-4.1,16.653,16.653,0,0,0,3.5-9.916h0a13.414,13.414,0,0,0-12.926-13.89C1073.55,776.959,1073.385,776.957,1073.221,776.957Z" transform="translate(-1059.102 -776.279)"/>
                    </g>
                    <path id="Path_1484" data-name="Path 1484" d="M1050.478,720.37s-.168-10.935-16.435-10.179c-14.984.7-15.7,34.81,11.229,22.112a10.053,10.053,0,0,1,7.477-.488,8.74,8.74,0,0,1,.983.385c1.449.709,1.237,4.749,1.237,4.749s1.923-1.521,2.483,1.12a2.383,2.383,0,0,1-1.912,3.044l1.624,6.877a43.115,43.115,0,0,0,4.344-11.5C1063.222,729.4,1057.407,718.206,1050.478,720.37Z" transform="translate(-1023.689 -710.154)"/>
                    <path id="Path_1485" data-name="Path 1485" d="M1116.425,892.588l-.834-3.55s8.753.715,11.893-4.6C1127.485,884.438,1127.429,891.665,1116.425,892.588Z" transform="translate(-1094.917 -845.235)"/>
                  </g>
                  <g id="Group_8269" data-name="Group 8269" transform="translate(98.337 132.61)">
                    <g id="Group_8267" data-name="Group 8267" transform="translate(0 23.315)">
                      <path id="Path_1486" data-name="Path 1486" d="M1048.956,1028.989l-3.057,1.037-1.854-5.464a1.616,1.616,0,0,1,1.01-2.047h0a1.616,1.616,0,0,1,2.047,1.01Z" transform="translate(-1043.624 -1022.091)" fill="#fff"/>
                      <path id="Path_1487" data-name="Path 1487" d="M1044.533,1029.29l-1.962-5.784a1.951,1.951,0,0,1,3.7-1.253l1.961,5.783Zm-.112-7.687a1.306,1.306,0,0,0-.412.068,1.278,1.278,0,0,0-.8,1.617l1.743,5.145,2.418-.819-1.745-5.144a1.28,1.28,0,0,0-1.206-.866Z" transform="translate(-1042.468 -1020.928)"/>
                    </g>
                    <path id="Path_1488" data-name="Path 1488" d="M1087.451,956.271c-.625,6.337-4.355,11.083-11.787,8.888s-19.352-9.32-19.352-9.32l-.452,1.116-3.561,8.8-.709,1.752c15.8,20.772,45.59,20.184,50.442,14.133s4.926-18.007-.749-36.5c0,0-3.248-12.732-15.242-16.25,0,0,6.807,3.532,11.432,13.049S1087.451,956.271,1087.451,956.271Z" transform="translate(-1049.538 -926.278)" fill="#fff"/>
                    <g id="Group_8268" data-name="Group 8268" transform="translate(1.665)">
                      <path id="Path_1489" data-name="Path 1489" d="M1087.425,976.65c-.18,0-.358,0-.538,0a50.762,50.762,0,0,1-18.972-4.1,44.083,44.083,0,0,1-17.928-13.836l-.117-.153,4.94-12.212.337.2c.119.072,11.972,7.129,19.278,9.286,2.992.884,5.5.666,7.441-.643,2.164-1.458,3.554-4.283,3.914-7.954l.673.065c-.382,3.876-1.876,6.877-4.209,8.447-2.119,1.428-4.814,1.674-8.008.731-6.685-1.973-17.089-7.977-19.094-9.153l-4.5,11.128c9.749,12.691,25.1,17.37,36.255,17.512,6.438.088,11.747-1.307,13.54-3.541,4.94-6.159,4.668-18.335-.807-36.192-2.888-9.423-8.786-13.89-13.227-15.978a23.89,23.89,0,0,0-9.063-2.3v-.675a24.07,24.07,0,0,1,9.322,2.355c4.573,2.144,10.647,6.731,13.612,16.4,5.545,18.083,5.777,30.469.688,36.813C1099.1,975.177,1093.818,976.65,1087.425,976.65Z" transform="translate(-1049.87 -917.28)"/>
                    </g>
                    <path id="Path_1490" data-name="Path 1490" d="M1144.3,1046.681s11.812.436,15.573-11.151C1159.873,1035.53,1160.885,1053.755,1144.3,1046.681Z" transform="translate(-1121.393 -1008.93)"/>
                    <path id="Path_1491" data-name="Path 1491" d="M1051.58,1100.57s5.493,12.557,23.682,21.356,27.241,3.52,27.241,3.52l-.481-10.746s-6.82,6.483-23.433,2.542S1051.58,1100.57,1051.58,1100.57Z" transform="translate(-1049.53 -1059.34)"/>
                  </g>
                  <g id="XMLID_123_" transform="translate(63.903 136.324)">
                    <g id="Group_8273" data-name="Group 8273">
                      <g id="XMLID_125_">
                        <g id="Group_8272" data-name="Group 8272">
                          <path id="Path_1492" data-name="Path 1492" d="M1026.583,940.944c-.7.18-1.035.659-1.163,1.91a3.555,3.555,0,0,1,2.546,3.077l.122,1.307c.891-.364,1.469-1.9,1.053-3.563C1028.7,941.922,1027.555,940.7,1026.583,940.944Z" transform="translate(-994.82 -939.311)"/>
                          <g id="Group_8270" data-name="Group 8270">
                            <path id="Path_1493" data-name="Path 1493" d="M896.482,935.29a5.59,5.59,0,0,0-5.565,6.105l3.541,34.669h28.613l-2.841-35.33c-.011-.938.007-1.719.052-2.366.148-1.944.6-2.724,1.559-3.032.027-.009.025-.045,0-.045Z" transform="translate(-890.555 -934.953)" fill="#fff"/>
                            <path id="Path_1494" data-name="Path 1494" d="M922.27,975.239H892.986l-3.572-34.972a5.93,5.93,0,0,1,5.9-6.476h25.352a.36.36,0,0,1,.108.7c-.706.227-1.174.763-1.325,2.738-.045.639-.063,1.4-.052,2.326Zm-28.674-.675h27.941l-2.812-34.988c-.011-.949.007-1.732.054-2.393a4.6,4.6,0,0,1,.821-2.718H895.317a5.255,5.255,0,0,0-5.23,5.736Z" transform="translate(-889.389 -933.79)"/>
                          </g>
                          <path id="Path_1495" data-name="Path 1495" d="M938.118,986.667H910.31l.184,1.244h29.041L938.1,974.857h-.029l-1.928-23.918a16.739,16.739,0,0,1,.059-1.84,3.721,3.721,0,0,0-.873-.128c-.047.648-.063,1.428-.052,2.366Z" transform="translate(-905.604 -945.555)"/>
                          <g id="Group_8271" data-name="Group 8271" transform="translate(5.388 3.106)">
                            <path id="Path_1496" data-name="Path 1496" d="M943.224,988.36H915.07s.313,2.175.376,2.587a3.629,3.629,0,0,0,3.518,3.212h23.41a3.536,3.536,0,0,0,3.523-3.86l-3.188-34.734-.151-1.631-.122-1.307a3.555,3.555,0,0,0-2.546-3.077,17.361,17.361,0,0,0-.058,1.84l1.928,23.919h.029Z" transform="translate(-914.681 -949.111)" fill="#fff"/>
                            <path id="Path_1497" data-name="Path 1497" d="M941.033,992.983h-23.41a3.986,3.986,0,0,1-3.851-3.5c-.063-.411-.376-2.591-.376-2.591l-.056-.385h28.168l-1.361-12.379h-.038l-1.953-24.254a16.5,16.5,0,0,1,.061-1.878l.043-.4.387.11a3.912,3.912,0,0,1,2.789,3.37l.272,2.94,3.188,34.734a3.877,3.877,0,0,1-3.862,4.229Zm-26.915-5.8c.092.643.274,1.9.319,2.2a3.273,3.273,0,0,0,3.185,2.924h23.41a3.2,3.2,0,0,0,3.188-3.491l-3.46-37.672a3.242,3.242,0,0,0-1.908-2.643c-.02.353-.027.785-.022,1.359l1.9,23.6h.02l1.509,13.729Z" transform="translate(-913.34 -947.6)"/>
                          </g>
                          <path id="Path_1498" data-name="Path 1498" d="M1023.249,935.136c-1.071.272-1.561,1.03-1.719,3.077a3.594,3.594,0,0,1,.873.128c.128-1.251.463-1.73,1.163-1.91.972-.243,2.117.978,2.558,2.731.416,1.66-.162,3.2-1.053,3.563l.151,1.631c1.413-.353,2.385-2.708,1.748-5.255S1024.661,934.783,1023.249,935.136Z" transform="translate(-991.805 -934.799)"/>
                        </g>
                      </g>
                    </g>
                  </g>
                  <g id="Group_8279" data-name="Group 8279" transform="translate(89.372 156.695)">
                    <g id="Group_8275" data-name="Group 8275">
                      <g id="Group_8274" data-name="Group 8274">
                        <path id="Path_1499" data-name="Path 1499" d="M1004.827,1034.634l.459.362a1.866,1.866,0,0,0,.648,1.943l1.968,1.543a4.726,4.726,0,0,0,.652.513l.524.409a1.84,1.84,0,0,0,1.316.382l2.682.949a4.521,4.521,0,0,0,2.429.169l3.561-8.8a.219.219,0,0,0-.031-.031l-10.217-5.824a11.63,11.63,0,0,1-3.946,3.138,1.867,1.867,0,0,0,.007,2.294,2.043,2.043,0,0,0-.367.347A1.861,1.861,0,0,0,1004.827,1034.634Z" transform="translate(-1003.78 -1025.514)" fill="#fff"/>
                        <path id="Path_1500" data-name="Path 1500" d="M1013.432,1040.169a4.909,4.909,0,0,1-1.635-.281l-2.614-.924a2.17,2.17,0,0,1-1.478-.459l-.513-.4a5.07,5.07,0,0,1-.675-.531l-1.955-1.534a2.19,2.19,0,0,1-.812-2.074l-.295-.232a2.2,2.2,0,0,1-.373-3.082,2.041,2.041,0,0,1,.184-.2,13.357,13.357,0,0,0,1.509-5.264,2.2,2.2,0,0,1,3.066-.387l10.235,5.835.031.031a.384.384,0,0,1,.076.085l.1.149-3.694,9.135-.178.036A4.949,4.949,0,0,1,1013.432,1040.169Zm-4.159-1.892,2.751.974a4.2,4.2,0,0,0,2.074.189l3.385-8.368-10.039-5.727a1.514,1.514,0,0,0-2.22,2l.277.445-.52.068a1.515,1.515,0,0,0-1,2.447l.211.268-.272.207a1.645,1.645,0,0,0-.306.286,1.525,1.525,0,0,0,.259,2.135l0,0,.632.5-.056.214a1.526,1.526,0,0,0,.529,1.593l1.991,1.563a4.539,4.539,0,0,0,.605.477l.023.016.524.41a1.506,1.506,0,0,0,1.077.313Z" transform="translate(-1002.615 -1024.346)"/>
                      </g>
                    </g>
                    <g id="Group_8276" data-name="Group 8276" transform="translate(2.17 2.892)">
                      <rect id="Rectangle_1672" data-name="Rectangle 1672" width="0.675" height="5.959" transform="matrix(0.492, -0.871, 0.871, 0.492, 0, 0.588)"/>
                    </g>
                    <g id="Group_8277" data-name="Group 8277" transform="translate(0.885 5.811)">
                      <rect id="Rectangle_1673" data-name="Rectangle 1673" width="0.675" height="5.959" transform="matrix(0.492, -0.871, 0.871, 0.492, 0, 0.588)"/>
                    </g>
                    <g id="Group_8278" data-name="Group 8278" transform="translate(1.331 9.207)">
                      <rect id="Rectangle_1674" data-name="Rectangle 1674" width="0.675" height="6.177" transform="matrix(0.506, -0.863, 0.863, 0.506, 0, 0.582)"/>
                    </g>
                  </g>
                  <g id="Group_8284" data-name="Group 8284" transform="translate(61.232 162.265)">
                    <g id="Group_8280" data-name="Group 8280" transform="translate(0 0)">
                      <path id="Path_1501" data-name="Path 1501" d="M887.993,1060.535h0a1.87,1.87,0,0,0-.947-1.138l.045-.013a13.642,13.642,0,0,1-.5-4.839,1.891,1.891,0,0,0-1.635-1.343,1.87,1.87,0,0,0,.023-1.123l-.13-.443a1.422,1.422,0,0,0-1.764-.965l-2.607.763a1.421,1.421,0,0,0-.965,1.763l.261.886a1.409,1.409,0,0,0,.241.465,12.2,12.2,0,0,1-.256,5.019,1.869,1.869,0,0,1,.74,3.16,1.887,1.887,0,0,0,2.337,1.278l3.883-1.138A1.881,1.881,0,0,0,887.993,1060.535Z" transform="translate(-878.677 -1050.276)" fill="#fff"/>
                      <path id="Path_1502" data-name="Path 1502" d="M881.145,1063.256a15.23,15.23,0,0,0-2.875-4.758,2.19,2.19,0,0,0-.663-2.828,2.238,2.238,0,0,1,.783-2.389,1.6,1.6,0,0,1-.1-.268l-.261-.888a1.761,1.761,0,0,1,1.194-2.182l2.607-.763a1.758,1.758,0,0,1,2.182,1.192l.13.443a2.212,2.212,0,0,0,1.615,2.463,2.2,2.2,0,0,1,.061.952,2.213,2.213,0,0,1,.754,4.065,2.169,2.169,0,0,1,.592.972h0a2.225,2.225,0,0,1-1.507,2.755l-3.883,1.138A2.109,2.109,0,0,1,881.145,1063.256Zm1.179-13.472a1.018,1.018,0,0,0-.306.045l-2.607.763a1.085,1.085,0,0,0-.736,1.345l.261.889a1.1,1.1,0,0,0,.185.355l.243.315-.351.189a1.554,1.554,0,0,0-.756,1.8,1.533,1.533,0,0,0,.807.947l.369.182-.25.326a1.533,1.533,0,0,0,.771,2.416l.553.169-.418.4a1.54,1.54,0,0,0,1.489,2.6l3.883-1.138a1.549,1.549,0,0,0,1.048-1.919h0a1.53,1.53,0,0,0-.776-.934l-.749-.387.853-.25a1.541,1.541,0,0,0-.439-3.021h0l-.479,0,.162-.452a1.53,1.53,0,0,0-1.311-2.047l-.423-.04.135-.4a1.535,1.535,0,0,0,.018-.922l-.13-.443a1.071,1.071,0,0,0-.52-.646A1.038,1.038,0,0,0,882.324,1049.785Z" transform="translate(-877.519 -1049.109)"/>
                    </g>
                    <g id="Group_8281" data-name="Group 8281" transform="translate(2.123 8.804)">
                      <rect id="Rectangle_1675" data-name="Rectangle 1675" width="6.256" height="0.391" transform="translate(0 1.691) rotate(-15.682)"/>
                    </g>
                    <g id="Group_8282" data-name="Group 8282" transform="translate(1.363 5.398)">
                      <rect id="Rectangle_1676" data-name="Rectangle 1676" width="6.739" height="0.391" transform="translate(0 2.094) rotate(-18.102)"/>
                    </g>
                    <g id="Group_8283" data-name="Group 8283" transform="translate(1.534 2.859)">
                      <rect id="Rectangle_1677" data-name="Rectangle 1677" width="4.742" height="0.391" transform="translate(0 1.316) rotate(-16.111)"/>
                    </g>
                  </g>
                </g>
                <g id="Group_8290" data-name="Group 8290" clip-path="url(#clip-path)">
                  <g id="Group_8285" data-name="Group 8285" transform="translate(24.472 101.921)">
                    <path id="Path_1504" data-name="Path 1504" d="M715.99,782.36l4.647,20.108H777.11l10.548,8.57L775.765,782.36Z" transform="translate(-715.565 -782.02)" fill="#769e49"/>
                    <path id="Path_1505" data-name="Path 1505" d="M787.016,810.973l-11.49-9.34H718.9l-4.8-20.783h60.425ZM719.44,800.96h56.324l9.605,7.806-11.3-27.239H714.948Z" transform="translate(-714.1 -780.85)"/>
                  </g>
                  <g id="Group_8289" data-name="Group 8289" transform="translate(31.904 107.043)">
                    <g id="Group_8286" data-name="Group 8286" transform="translate(7.162)">
                      <path id="Path_1506" data-name="Path 1506" d="M819.6,805.654H780a1.017,1.017,0,1,1,0-2.034h39.6a1.017,1.017,0,1,1,0,2.034Z" transform="translate(-778.98 -803.62)" fill="#fff"/>
                    </g>
                    <g id="Group_8287" data-name="Group 8287" transform="translate(1.118 3.811)">
                      <path id="Path_1507" data-name="Path 1507" d="M797.585,822.594H753.127a1.017,1.017,0,0,1,0-2.034h44.458a1.017,1.017,0,1,1,0,2.034Z" transform="translate(-752.11 -820.56)" fill="#fff"/>
                    </g>
                    <g id="Group_8288" data-name="Group 8288" transform="translate(0 7.385)">
                      <path id="Path_1508" data-name="Path 1508" d="M792.615,838.484H748.157a1.017,1.017,0,1,1,0-2.034h44.458a1.017,1.017,0,1,1,0,2.034Z" transform="translate(-747.14 -836.45)" fill="#fff"/>
                    </g>
                  </g>
                </g>
              </g>
            </g>
          </g>
          <g id="Group_8300" data-name="Group 8300" transform="translate(33.208 141.481)">
            <g id="Group_8298" data-name="Group 8298" transform="translate(0 0)">
              <rect id="Rectangle_1682" data-name="Rectangle 1682" width="68.636" height="29.299" transform="translate(0.337 0.337)" fill="#fff"/>
              <path id="Path_1514" data-name="Path 1514" d="M569.981,955.574H500.67V925.6h69.311Zm-68.636-.675h67.961V926.275H501.345Z" transform="translate(-500.67 -925.6)"/>
            </g>
            <path id="Path_1515" data-name="Path 1515" d="M644.459,961.922H603.931a.98.98,0,0,1-.981-.981h0a.98.98,0,0,1,.981-.981h40.529a.98.98,0,0,1,.981.981h0A.983.983,0,0,1,644.459,961.922Z" transform="translate(-579.943 -952.231)"/>
            <path id="Path_1516" data-name="Path 1516" d="M644.459,981.082H603.931a.98.98,0,0,1-.981-.981h0a.98.98,0,0,1,.981-.981h40.529a.98.98,0,0,1,.981.981h0A.983.983,0,0,1,644.459,981.082Z" transform="translate(-579.943 -967.081)"/>
            <path id="Path_1517" data-name="Path 1517" d="M644.459,1000.242H603.931a.98.98,0,0,1-.981-.981h0a.98.98,0,0,1,.981-.981h40.529a.98.98,0,0,1,.981.981h0A.983.983,0,0,1,644.459,1000.242Z" transform="translate(-579.943 -981.931)"/>
            <path id="Path_1518" data-name="Path 1518" d="M644.459,1019.412H603.931a.98.98,0,0,1-.981-.981h0a.98.98,0,0,1,.981-.981h40.529a.98.98,0,0,1,.981.981h0A.983.983,0,0,1,644.459,1019.412Z" transform="translate(-579.943 -996.789)"/>
            <g id="Group_8299" data-name="Group 8299" transform="translate(2.994 6.022)">
              <path id="Path_1519" data-name="Path 1519" d="M532.73,960.342h-6.472V953.87h-4.317v6.472H515.47v4.315h6.472v6.472h4.317v-6.472h6.472Z" transform="translate(-515.135 -953.533)" fill="#d4721b"/>
              <path id="Path_1520" data-name="Path 1520" d="M525.441,970.3h-4.989v-6.472H513.98v-4.989h6.472V952.37h4.989v6.472h6.472v4.989h-6.472Zm-4.317-.675h3.64v-6.472h6.472v-3.64h-6.472v-6.472h-3.64v6.472h-6.472v3.64h6.472Z" transform="translate(-513.98 -952.37)"/>
            </g>
          </g>
          <g id="Group_8303" data-name="Group 8303" transform="translate(107.27 243.344)">
            <g id="Group_8301" data-name="Group 8301">
              <rect id="Rectangle_1683" data-name="Rectangle 1683" width="140.711" height="60.067" transform="translate(0.337 0.335)" fill="#fff"/>
              <path id="Path_1521" data-name="Path 1521" d="M978.3,1453.172H836.91V1392.43H978.3Zm-140.713-.675H977.623V1393.1H837.585Z" transform="translate(-836.91 -1392.43)"/>
            </g>
            <path id="Path_1522" data-name="Path 1522" d="M1130.127,1465.318h-83.089a2.009,2.009,0,0,1-2.009-2.009h0a2.009,2.009,0,0,1,2.009-2.009h83.089a2.009,2.009,0,0,1,2.009,2.009h0A2.009,2.009,0,0,1,1130.127,1465.318Z" transform="translate(-998.214 -1445.808)"/>
            <path id="Path_1523" data-name="Path 1523" d="M1130.127,1504.608h-83.089a2.009,2.009,0,0,1-2.009-2.009h0a2.009,2.009,0,0,1,2.009-2.009h83.089a2.009,2.009,0,0,1,2.009,2.009h0A2.009,2.009,0,0,1,1130.127,1504.608Z" transform="translate(-998.214 -1476.26)"/>
            <path id="Path_1524" data-name="Path 1524" d="M1130.127,1543.888h-83.089a2.009,2.009,0,0,1-2.009-2.009h0a2.009,2.009,0,0,1,2.009-2.009h83.089a2.009,2.009,0,0,1,2.009,2.009h0A2.008,2.008,0,0,1,1130.127,1543.888Z" transform="translate(-998.214 -1506.704)"/>
            <path id="Path_1525" data-name="Path 1525" d="M1130.127,1583.177h-83.089a2.009,2.009,0,0,1-2.009-2.009h0a2.009,2.009,0,0,1,2.009-2.009h83.089a2.009,2.009,0,0,1,2.009,2.009h0A2.008,2.008,0,0,1,1130.127,1583.177Z" transform="translate(-998.214 -1537.156)"/>
            <g id="Group_8302" data-name="Group 8302" transform="translate(6.137 12.341)">
              <path id="Path_1526" data-name="Path 1526" d="M901.062,1462.06H887.795v-13.27h-8.847v13.27H865.68v8.845h13.267v13.27h8.847V1470.9h13.267Z" transform="translate(-865.345 -1448.453)" fill="#d4721b"/>
              <path id="Path_1527" data-name="Path 1527" d="M886.977,1483.349h-9.52v-13.27H864.19v-9.52h13.267v-13.27h9.52v13.27h13.27v9.52h-13.27Zm-8.847-.675h8.17V1469.4h13.27v-8.17H886.3v-13.27h-8.17v13.27H864.863v8.17H878.13Z" transform="translate(-864.19 -1447.29)"/>
            </g>
          </g>
        </g>
      </g>
    </g>
    <g id="Group_8128" data-name="Group 8128" transform="translate(123.763 360.169) rotate(3)">
      <g id="Group_8102" data-name="Group 8102" transform="translate(1.125 7.024)">
        <path id="Path_974" data-name="Path 974" d="M21.418,70.543a6.744,6.744,0,0,1-8.668-3.949L.935,34.994A14.522,14.522,0,0,1,2.177,22.216,13.2,13.2,0,0,0,3.186,10.827L2.7,9.522,28.173,0l.488,1.3a13.2,13.2,0,0,0,8.231,7.936,14.53,14.53,0,0,1,9.319,8.832l11.815,31.6a6.744,6.744,0,0,1-3.949,8.667Z" transform="translate(0.258 0.348)" fill="#d4721b"/>
        <path id="Path_975" data-name="Path 975" d="M19.32,71.583a7.028,7.028,0,0,1-6.558-4.55L.951,35.433a14.805,14.805,0,0,1,1.262-13.01A12.932,12.932,0,0,0,3.2,11.262L2.622,9.708,28.589,0l.58,1.554a12.928,12.928,0,0,0,8.07,7.778,14.781,14.781,0,0,1,9.483,8.991l11.811,31.6a7.005,7.005,0,0,1-4.1,9.005L21.771,71.137A6.968,6.968,0,0,1,19.32,71.583ZM3.3,10.021l.394,1.058A13.459,13.459,0,0,1,2.66,22.7,14.269,14.269,0,0,0,1.44,35.25l11.811,31.6a6.479,6.479,0,0,0,8.327,3.794L54.237,58.436A6.479,6.479,0,0,0,58.03,50.11L46.22,18.509a14.262,14.262,0,0,0-9.154-8.671,13.455,13.455,0,0,1-8.4-8.094L28.272.685Z"/>
      </g>
      <g id="Group_8103" data-name="Group 8103" transform="translate(2.514 8.825)">
        <path id="Path_976" data-name="Path 976" d="M43.5,16.765A13.226,13.226,0,0,0,35.06,8.773h0A14.644,14.644,0,0,1,25.949,0h0L3.087,8.548h0a14.656,14.656,0,0,1-1.122,12.6h0A13.238,13.238,0,0,0,.837,32.719l11.815,31.6a5.341,5.341,0,0,0,6.874,3.133L52.184,55.243a5.341,5.341,0,0,0,3.133-6.874Z" transform="translate(0.276 0.338)" fill="#c5dbb2"/>
        <path id="Path_977" data-name="Path 977" d="M17.935,68.387a5.619,5.619,0,0,1-5.257-3.643L.864,33.144a13.407,13.407,0,0,1,1.149-11.8,14.322,14.322,0,0,0,1.1-12.367l-.092-.246L26.38,0l.092.246a14.31,14.31,0,0,0,8.945,8.615,13.4,13.4,0,0,1,8.6,8.151l11.814,31.6a5.612,5.612,0,0,1-3.288,7.212L19.89,68.032A5.535,5.535,0,0,1,17.935,68.387ZM3.7,9.037A14.846,14.846,0,0,1,2.47,21.614,12.884,12.884,0,0,0,1.363,32.958l11.815,31.6a5.081,5.081,0,0,0,6.533,2.978L52.369,55.328a5.082,5.082,0,0,0,2.978-6.533l-11.814-31.6A12.875,12.875,0,0,0,35.259,9.36,14.828,14.828,0,0,1,26.075.672Z"/>
      </g>
      <g id="Group_8104" data-name="Group 8104" transform="translate(3.91 18.973)">
        <path id="Path_978" data-name="Path 978" d="M40.81,7.159l11.814,31.6a3.953,3.953,0,0,1-2.318,5.081L17.649,56.049a3.946,3.946,0,0,1-5.077-2.314L.757,22.134A11.761,11.761,0,0,1,1.766,11.783l.01-.021L33.237,0l.021.007A11.762,11.762,0,0,1,40.81,7.159Z" transform="translate(0.268 0.285)" fill="#d4721b"/>
        <path id="Path_979" data-name="Path 979" d="M16.535,56.847a4.228,4.228,0,0,1-3.946-2.739L.775,22.507a12.019,12.019,0,0,1,1.03-10.584l.046-.077.1-.053L33.5,0l.091.031a12.026,12.026,0,0,1,7.732,7.314l11.815,31.6a4.216,4.216,0,0,1-2.472,5.419L18,56.573A4.038,4.038,0,0,1,16.535,56.847ZM2.22,12.258a11.514,11.514,0,0,0-.953,10.063l11.815,31.6a3.684,3.684,0,0,0,4.74,2.159L50.48,43.872a3.689,3.689,0,0,0,2.163-4.74L40.828,7.532A11.483,11.483,0,0,0,33.508.559Z"/>
      </g>
      <g id="Group_8105" data-name="Group 8105" transform="translate(8.744 25.512)">
        <path id="Path_980" data-name="Path 980" d="M1.238,1.79A.92.92,0,0,1,.06,1.242.916.916,0,0,1,.587.057.92.92,0,0,1,1.765.605.913.913,0,0,1,1.238,1.79Z" transform="translate(26.905 0)" fill="#fff"/>
        <path id="Path_981" data-name="Path 981" d="M1.777,2.575A1.32,1.32,0,0,1,.085,1.788,1.323,1.323,0,0,1,.844.082,1.318,1.318,0,0,1,2.536.87,1.322,1.322,0,0,1,1.777,2.575Z" transform="translate(24.791 7.83)" fill="#fff"/>
        <path id="Path_982" data-name="Path 982" d="M1.2,1.735A.889.889,0,0,1,.057,1.2.892.892,0,0,1,.571.055.889.889,0,0,1,1.71.585.9.9,0,0,1,1.2,1.735Z" transform="translate(19.858 6.349)" fill="#fff"/>
        <path id="Path_983" data-name="Path 983" d="M1,1.457A.744.744,0,0,1,.048,1.01.746.746,0,0,1,.477.047a.744.744,0,0,1,.956.447A.744.744,0,0,1,1,1.457Z" transform="translate(18.26 14.764)" fill="#fff"/>
        <path id="Path_984" data-name="Path 984" d="M1.474,2.136a1.092,1.092,0,0,1-1.4-.654A1.1,1.1,0,0,1,.7.069,1.091,1.091,0,0,1,2.1.723,1.092,1.092,0,0,1,1.474,2.136Z" transform="translate(12.393 9.074)" fill="#fff"/>
        <path id="Path_985" data-name="Path 985" d="M.927,1.344A.688.688,0,0,1,.045.933a.689.689,0,0,1,.4-.89.688.688,0,0,1,.883.412A.691.691,0,0,1,.927,1.344Z" transform="translate(10.299 16.276)" fill="#fff"/>
        <path id="Path_986" data-name="Path 986" d="M.773,1.118A.573.573,0,0,1,.037.777.575.575,0,0,1,.368.035.573.573,0,0,1,1.1.377.571.571,0,0,1,.773,1.118Z" transform="translate(11.59 4.596)" fill="#fff"/>
        <path id="Path_987" data-name="Path 987" d="M.772,1.118A.573.573,0,0,1,.038.777.574.574,0,0,1,.368.035a.578.578,0,0,1,.4,1.083Z" transform="translate(16.495 2.764)" fill="#fff"/>
        <path id="Path_988" data-name="Path 988" d="M1.353,1.958a1.006,1.006,0,0,1-1.287-.6A1,1,0,0,1,.643.063,1.006,1.006,0,0,1,1.93.66,1,1,0,0,1,1.353,1.958Z" transform="translate(3.973 10.522)" fill="#fff"/>
        <path id="Path_989" data-name="Path 989" d="M1.084,1.566A.8.8,0,0,1,.053,1.088.8.8,0,1,1,1.548.528.806.806,0,0,1,1.084,1.566Z" transform="translate(3.381 16.484)" fill="#fff"/>
        <ellipse id="Ellipse_437" data-name="Ellipse 437" cx="0.682" cy="0.693" rx="0.682" ry="0.693" transform="translate(0 14.476) rotate(-20.486)" fill="#fff"/>
      </g>
      <g id="Group_8106" data-name="Group 8106" transform="translate(21.081 53.304)">
        <path id="Path_990" data-name="Path 990" d="M.588.057A.919.919,0,0,1,1.765.605.917.917,0,0,1,1.239,1.79.921.921,0,0,1,.06,1.242.916.916,0,0,1,.588.057Z" transform="translate(0 16.253)" fill="#fff"/>
        <path id="Path_991" data-name="Path 991" d="M.845.082A1.319,1.319,0,0,1,2.536.87a1.323,1.323,0,0,1-.76,1.705A1.319,1.319,0,0,1,.085,1.788,1.323,1.323,0,0,1,.845.082Z" transform="translate(1.321 7.612)" fill="#fff"/>
        <path id="Path_992" data-name="Path 992" d="M.57.055A.889.889,0,0,1,1.709.585.892.892,0,0,1,1.2,1.735.889.889,0,0,1,.057,1.2.894.894,0,0,1,.57.055Z" transform="translate(7.109 9.961)" fill="#fff"/>
        <path id="Path_993" data-name="Path 993" d="M.476.047a.743.743,0,0,1,.956.446A.746.746,0,0,1,1,1.457.744.744,0,0,1,.048,1.01.748.748,0,0,1,.476.047Z" transform="translate(8.989 1.835)" fill="#fff"/>
        <path id="Path_994" data-name="Path 994" d="M.7.069A1.091,1.091,0,0,1,2.1.722a1.1,1.1,0,0,1-.629,1.414,1.092,1.092,0,0,1-1.4-.654A1.092,1.092,0,0,1,.7.069Z" transform="translate(14.166 6.821)" fill="#fff"/>
        <path id="Path_995" data-name="Path 995" d="M.442.043a.688.688,0,0,1,.882.411.688.688,0,0,1-.4.89A.689.689,0,0,1,.044.933.692.692,0,0,1,.442.043Z" transform="translate(17.066 0.436)" fill="#fff"/>
        <path id="Path_996" data-name="Path 996" d="M.369.036A.572.572,0,0,1,1.1.377a.575.575,0,0,1-.33.742A.573.573,0,0,1,.038.777.572.572,0,0,1,.369.036Z" transform="translate(16.004 12.35)" fill="#fff"/>
        <path id="Path_997" data-name="Path 997" d="M.366.035A.574.574,0,0,1,1.1.377a.574.574,0,0,1-.331.742A.573.573,0,0,1,.036.777.579.579,0,0,1,.366.035Z" transform="translate(11.1 14.182)" fill="#fff"/>
        <ellipse id="Ellipse_438" data-name="Ellipse 438" cx="0.995" cy="1.013" rx="0.995" ry="1.013" transform="translate(22.477 5.948) rotate(-20.463)" fill="#fff"/>
        <path id="Path_998" data-name="Path 998" d="M.515.05A.8.8,0,0,1,1.546.528a.8.8,0,1,1-1.495.559A.806.806,0,0,1,.515.05Z" transform="translate(23.754 0)" fill="#fff"/>
        <path id="Path_999" data-name="Path 999" d="M.442.043a.689.689,0,0,1,.883.411.689.689,0,0,1-.4.89A.689.689,0,0,1,.045.933.688.688,0,0,1,.442.043Z" transform="translate(27.196 2.514)" fill="#fff"/>
      </g>
      <g id="Group_8107" data-name="Group 8107">
        <path id="Path_1000" data-name="Path 1000" d="M32.769,10.891,3.514,21.826.2,12.958a3.109,3.109,0,0,1,1.825-4L25.455.2a3.11,3.11,0,0,1,4,1.825Z" transform="translate(0.264 0.265)" fill="#d4721b"/>
        <path id="Path_1001" data-name="Path 1001" d="M3.623,22.433.216,13.315A3.377,3.377,0,0,1,2.2,8.972L25.628.214a3.375,3.375,0,0,1,4.339,1.98l3.407,9.117ZM26.805.53a2.826,2.826,0,0,0-1,.183L2.375,9.471A2.845,2.845,0,0,0,.7,13.132l3.224,8.622L32.692,11,29.468,2.379A2.845,2.845,0,0,0,26.805.53Z"/>
      </g>
      <g id="Group_8124" data-name="Group 8124" transform="translate(0.926 0.007)">
        <g id="Group_8108" data-name="Group 8108" transform="translate(0 9.652)">
          <path id="Path_1002" data-name="Path 1002" d="M4.571,12.056a.264.264,0,0,1-.246-.173L.018.358A.264.264,0,0,1,.172.016.261.261,0,0,1,.509.171L4.817,11.7a.263.263,0,0,1-.154.341A.257.257,0,0,1,4.571,12.056Z" fill="#fff"/>
        </g>
        <g id="Group_8109" data-name="Group 8109" transform="translate(1.621 8.752)">
          <path id="Path_1003" data-name="Path 1003" d="M4.669,12.312a.264.264,0,0,1-.246-.172L.018.357A.263.263,0,1,1,.509.171L4.915,11.954a.263.263,0,0,1-.155.341A.25.25,0,0,1,4.669,12.312Z" fill="#fff"/>
        </g>
        <g id="Group_8110" data-name="Group 8110" transform="translate(3.344 8.108)">
          <path id="Path_1004" data-name="Path 1004" d="M4.67,12.312a.263.263,0,0,1-.246-.172L.018.357A.263.263,0,0,1,.172.016.261.261,0,0,1,.51.171L4.916,11.954a.264.264,0,0,1-.154.341A.3.3,0,0,1,4.67,12.312Z" fill="#fff"/>
        </g>
        <g id="Group_8111" data-name="Group 8111" transform="translate(5.063 7.465)">
          <path id="Path_1005" data-name="Path 1005" d="M4.67,12.313a.265.265,0,0,1-.246-.172L.017.357A.265.265,0,0,1,.172.016.262.262,0,0,1,.51.171L4.916,11.954a.265.265,0,0,1-.155.341A.269.269,0,0,1,4.67,12.313Z" fill="#fff"/>
        </g>
        <g id="Group_8112" data-name="Group 8112" transform="translate(6.786 6.821)">
          <path id="Path_1006" data-name="Path 1006" d="M4.669,12.313a.264.264,0,0,1-.246-.172L.017.357A.264.264,0,0,1,.172.016.261.261,0,0,1,.509.171L4.915,11.954a.264.264,0,0,1-.155.341A.307.307,0,0,1,4.669,12.313Z" fill="#fff"/>
        </g>
        <g id="Group_8113" data-name="Group 8113" transform="translate(8.506 6.178)">
          <path id="Path_1007" data-name="Path 1007" d="M4.669,12.312a.264.264,0,0,1-.246-.172L.018.357A.263.263,0,1,1,.51.171L4.916,11.954a.266.266,0,0,1-.246.358Z" fill="#fff"/>
        </g>
        <g id="Group_8114" data-name="Group 8114" transform="translate(10.229 5.535)">
          <path id="Path_1008" data-name="Path 1008" d="M4.67,12.312a.266.266,0,0,1-.247-.172L.018.357A.264.264,0,0,1,.172.016.261.261,0,0,1,.51.171L4.916,11.954a.264.264,0,0,1-.155.341A.3.3,0,0,1,4.67,12.312Z" fill="#fff"/>
        </g>
        <g id="Group_8115" data-name="Group 8115" transform="translate(11.948 4.891)">
          <path id="Path_1009" data-name="Path 1009" d="M4.669,12.312a.263.263,0,0,1-.245-.173L.017.357A.263.263,0,1,1,.51.171L4.916,11.954a.265.265,0,0,1-.155.341A.2.2,0,0,1,4.669,12.312Z" fill="#fff"/>
        </g>
        <g id="Group_8116" data-name="Group 8116" transform="translate(13.668 4.248)">
          <path id="Path_1010" data-name="Path 1010" d="M4.67,12.312a.265.265,0,0,1-.246-.172L.018.357A.263.263,0,1,1,.51.171L4.916,11.954a.264.264,0,0,1-.155.341A.2.2,0,0,1,4.67,12.312Z" fill="#fff"/>
        </g>
        <g id="Group_8117" data-name="Group 8117" transform="translate(15.391 3.604)">
          <path id="Path_1011" data-name="Path 1011" d="M4.67,12.312a.265.265,0,0,1-.246-.172L.018.357A.263.263,0,1,1,.51.171L4.916,11.953a.264.264,0,0,1-.155.341A.21.21,0,0,1,4.67,12.312Z" fill="#fff"/>
        </g>
        <g id="Group_8118" data-name="Group 8118" transform="translate(17.11 2.961)">
          <path id="Path_1012" data-name="Path 1012" d="M4.669,12.312a.263.263,0,0,1-.246-.172L.018.357A.263.263,0,1,1,.51.171L4.915,11.954a.264.264,0,0,1-.154.341A.2.2,0,0,1,4.669,12.312Z" fill="#fff"/>
        </g>
        <g id="Group_8119" data-name="Group 8119" transform="translate(18.833 2.317)">
          <path id="Path_1013" data-name="Path 1013" d="M4.669,12.312a.263.263,0,0,1-.246-.172L.018.357A.264.264,0,0,1,.172.016.261.261,0,0,1,.51.171L4.916,11.954a.264.264,0,0,1-.155.341A.223.223,0,0,1,4.669,12.312Z" fill="#fff"/>
        </g>
        <g id="Group_8120" data-name="Group 8120" transform="translate(20.552 1.674)">
          <path id="Path_1014" data-name="Path 1014" d="M4.67,12.312a.264.264,0,0,1-.246-.172L.018.357A.263.263,0,1,1,.51.171L4.916,11.954a.264.264,0,0,1-.155.341A.2.2,0,0,1,4.67,12.312Z" fill="#fff"/>
        </g>
        <g id="Group_8121" data-name="Group 8121" transform="translate(22.275 1.03)">
          <path id="Path_1015" data-name="Path 1015" d="M4.669,12.312a.264.264,0,0,1-.246-.172L.018.357A.264.264,0,0,1,.172.016.261.261,0,0,1,.51.171L4.916,11.954a.264.264,0,0,1-.155.341A.222.222,0,0,1,4.669,12.312Z" fill="#fff"/>
        </g>
        <g id="Group_8122" data-name="Group 8122" transform="translate(23.998 0.387)">
          <path id="Path_1016" data-name="Path 1016" d="M4.666,12.312a.264.264,0,0,1-.246-.172L.018.357A.263.263,0,1,1,.51.171l4.4,11.783a.264.264,0,0,1-.155.341A.2.2,0,0,1,4.666,12.312Z" fill="#fff"/>
        </g>
        <g id="Group_8123" data-name="Group 8123" transform="translate(25.813 0)">
          <path id="Path_1017" data-name="Path 1017" d="M4.571,12.056a.266.266,0,0,1-.246-.173L.017.357A.265.265,0,0,1,.172.016.262.262,0,0,1,.51.171L4.817,11.7a.264.264,0,0,1-.155.341A.206.206,0,0,1,4.571,12.056Z" fill="#fff"/>
        </g>
      </g>
      <g id="Group_8127" data-name="Group 8127" transform="translate(3.926 30.298)">
        <g id="Group_8125" data-name="Group 8125">
          <rect id="Rectangle_1654" data-name="Rectangle 1654" width="48.338" height="20.633" transform="translate(0.327 17.286) rotate(-20.494)" fill="#fff"/>
          <path id="Path_1018" data-name="Path 1018" d="M7.409,36.931,0,17.11,45.771,0,53.18,19.821ZM.679,17.419,7.718,36.252,52.5,19.512,45.462.679Z"/>
        </g>
        <path id="Path_1019" data-name="Path 1019" d="M27.667,1.338.933,11.331a.693.693,0,0,1-.89-.4h0a.693.693,0,0,1,.4-.89L27.182.044a.693.693,0,0,1,.89.4h0A.687.687,0,0,1,27.667,1.338Z" transform="translate(17.312 6.268)"/>
        <path id="Path_1020" data-name="Path 1020" d="M27.667,1.338.934,11.331a.692.692,0,0,1-.89-.4h0a.693.693,0,0,1,.4-.89L27.182.044a.694.694,0,0,1,.89.4h0A.692.692,0,0,1,27.667,1.338Z" transform="translate(18.378 9.112)"/>
        <path id="Path_1021" data-name="Path 1021" d="M27.667,1.338.933,11.331a.692.692,0,0,1-.89-.4h0a.693.693,0,0,1,.4-.89L27.182.044a.693.693,0,0,1,.89.4h0A.691.691,0,0,1,27.667,1.338Z" transform="translate(19.44 11.957)"/>
        <path id="Path_1022" data-name="Path 1022" d="M27.667,1.338.933,11.331a.692.692,0,0,1-.889-.4h0a.692.692,0,0,1,.4-.889L27.182.044a.693.693,0,0,1,.89.4h0A.686.686,0,0,1,27.667,1.338Z" transform="translate(20.502 14.798)"/>
        <g id="Group_8126" data-name="Group 8126" transform="translate(5.053 17.5)">
          <path id="Path_1023" data-name="Path 1023" d="M11.382,2.673l-4.269,1.6L5.517,0,2.672,1.062l1.6,4.272L0,6.927,1.062,9.775l4.269-1.6,1.6,4.268,2.848-1.062-1.6-4.272,4.269-1.6Z" transform="translate(0.341 0.338)" fill="#d4721b"/>
          <path id="Path_1024" data-name="Path 1024" d="M7.113,13.126l-1.6-4.269-4.269,1.6L0,7.113l4.268-1.6-1.6-4.269L6.013,0l1.6,4.269,4.269-1.6,1.248,3.34-4.269,1.6,1.6,4.269ZM5.83,8.175l1.6,4.269,2.352-.879L8.182,7.3l4.269-1.6-.879-2.352L7.3,4.944,5.707.675l-2.352.879,1.6,4.269L.682,7.419l.879,2.352Z" fill="#d4721b"/>
        </g>
      </g>
    </g>
    <g id="Group_8137" data-name="Group 8137" transform="translate(118.597 246.23) rotate(89)">
      <g id="Group_8135" data-name="Group 8135">
        <path id="Path_1033" data-name="Path 1033" d="M16.971,23.368l-11.406-5.2A9.515,9.515,0,1,1,13.457.853l11.406,5.2Z" transform="translate(0.591 0.59)" fill="#d4721b"/>
        <path id="Path_1034" data-name="Path 1034" d="M17.853,24.737,5.912,19.295A10.092,10.092,0,0,1,6.57.648h0A10.037,10.037,0,0,1,14.3.909l11.94,5.442ZM6.98,1.749h0A8.914,8.914,0,0,0,6.4,18.222l10.87,4.954,7.4-16.245L13.8,1.976A8.872,8.872,0,0,0,6.98,1.749Z"/>
      </g>
      <g id="Group_8136" data-name="Group 8136" transform="translate(16.779 5.86)">
        <path id="Path_1035" data-name="Path 1035" d="M11.406,22.519,0,17.319,7.892,0,19.3,5.2a9.516,9.516,0,0,1-7.892,17.319Z" transform="translate(0.782 0.779)" fill="#fff"/>
        <path id="Path_1036" data-name="Path 1036" d="M19.668,24.092a10.025,10.025,0,0,1-7.725-.261h0L0,18.389,8.38,0,20.323,5.442a10.1,10.1,0,0,1-.655,18.65ZM1.561,17.807l10.873,4.954a8.928,8.928,0,0,0,7.4-16.248L8.965,1.558Z"/>
      </g>
    </g>
  </g>
</svg>
