<svg xmlns="http://www.w3.org/2000/svg" width="16.605" height="24.346" viewBox="0 0 16.605 24.346">
  <g id="pharmacy-medicine" transform="translate(1.996 -1)">
    <path id="Path_1531" data-name="Path 1531" d="M1.186,21.306H15.243c0,.271.01.192,0,.464a1.539,1.539,0,0,1-.345,1.066,1.735,1.735,0,0,1-1.048.341L2.5,23.153a1.31,1.31,0,0,1-.953-.319,1.258,1.258,0,0,1-.331-.743,4,4,0,0,1-.026-.785Zm6.457-8.818H8.966a.451.451,0,0,1,.45.45v1.973h1.973a.451.451,0,0,1,.45.45v1.323a.451.451,0,0,1-.45.45H9.416v1.973a.451.451,0,0,1-.45.45H7.643a.451.451,0,0,1-.45-.45V17.134H5.22a.451.451,0,0,1-.45-.45V15.358a.451.451,0,0,1,.45-.45H7.193V12.937a.451.451,0,0,1,.45-.45Zm7.7-1.745H1.281c0-.553-.036-1.351.024-1.868A8.42,8.42,0,0,1,3.348,4.761c.216-.289.438-.588.668-.911H12.58c.2.281.422.573.638.862A8.581,8.581,0,0,1,15.31,8.888c.016.16.028,1.854.028,1.854ZM1.923,0H14.837a1.346,1.346,0,0,1,1.341,1.341V2.461A1.346,1.346,0,0,1,14.837,3.8h-.866c.125.17.25.335.372.5C15.516,5.862,16.63,7.346,16.6,9.514q0,6.217,0,12.436h0a2.378,2.378,0,0,1-.539,1.848,2.352,2.352,0,0,1-2.031.521H2.2v0a2.115,2.115,0,0,1-1.615-.511,2.091,2.091,0,0,1-.563-1.464.307.307,0,0,1,0-.044V9.97c-.151-2.383.848-3.808,2.2-5.621.135-.18.271-.363.406-.547h-.7A1.346,1.346,0,0,1,.582,2.461V1.341A1.346,1.346,0,0,1,1.923,0Z" transform="translate(-2 1)" fill="#838181" fill-rule="evenodd"/>
  </g>
</svg>
