<svg xmlns="http://www.w3.org/2000/svg" width="14.513" height="14.442" viewBox="0 0 14.513 14.442">
  <g id="phone-call" transform="translate(0 0)">
    <path id="Path_855" data-name="Path 855" d="M4,5.936A12.047,12.047,0,0,0,5.778,8.43,10.2,10.2,0,0,0,8.6,10.513a.293.293,0,0,0,.245.013,1.051,1.051,0,0,0,.339-.248A3.776,3.776,0,0,0,9.493,9.9c.454-.6,1.015-1.337,1.807-.966.018.008.031.018.048.025l2.644,1.52c.008,0,.018.013.025.018a1.192,1.192,0,0,1,.5,1.029,2.787,2.787,0,0,1-.387,1.311,2.685,2.685,0,0,1-1.271,1.123,5.793,5.793,0,0,1-1.568.426,5.318,5.318,0,0,1-2.394-.2,10.624,10.624,0,0,1-2.409-1.162l-.063-.04c-.391-.245-.814-.506-1.229-.814A15.409,15.409,0,0,1,1.122,7.547,7.508,7.508,0,0,1,.069,2.8,3.408,3.408,0,0,1,1.223.632a3.1,3.1,0,0,1,2.3-.614.332.332,0,0,1,.266.17l1.7,2.866a.9.9,0,0,1,.143.959,1.863,1.863,0,0,1-.649.726c-.091.078-.2.157-.314.24-.379.275-.81.593-.663.966l0-.009Z" transform="translate(0 0)" fill="#fff"/>
  </g>
</svg>
