<svg xmlns="http://www.w3.org/2000/svg" width="25.002" height="25.002" viewBox="0 0 25.002 25.002">
  <path id="question" d="M12.5,0A12.5,12.5,0,1,0,25,12.5,12.515,12.515,0,0,0,12.5,0Zm0,19.793a1.042,1.042,0,1,1,1.042-1.042A1.042,1.042,0,0,1,12.5,19.793ZM14.15,13.17a1.046,1.046,0,0,0-.607.947v.468a1.042,1.042,0,0,1-2.083,0v-.468a3.139,3.139,0,0,1,1.818-2.84,3.4,3.4,0,0,0,1.828-2.422,2.6,2.6,0,0,0-5.209,0,1.042,1.042,0,1,1-2.084,0,4.688,4.688,0,0,1,9.376,0A5.428,5.428,0,0,1,14.15,13.17Zm0,0" fill="#666769"/>
</svg>
