<svg xmlns="http://www.w3.org/2000/svg" width="23.997" height="23.042" viewBox="0 0 23.997 23.042">
  <g id="XMLID_2534_" transform="translate(0 -9.973)">
    <path id="XMLID_2538_" d="M24,299.667l-2.834-.412L19.9,296.688h0l-1.267,2.568-2.678.389.988-.963-3.413-.5L12,295.093l-1.526,3.093-3.413.5.988.963-2.678-.389L4.1,296.688h0l-1.267,2.567L0,299.667l2.051,2-.484,2.823L4.1,303.156h0l2.535,1.333-.484-2.823,1.984-1.934,1.392,1.357-.583,3.4,3.053-1.6,3.053,1.6-.583-3.4,1.393-1.357,1.984,1.934-.484,2.823,2.535-1.333h0l2.535,1.333-.484-2.823,2.051-2Z" transform="translate(0 -271.474)" fill="#666769"/>
    <path id="XMLID_2638_" d="M15.942,103.408v-.718a6.185,6.185,0,0,1,.919-3.251,3.977,3.977,0,0,0-.777-.416,2.154,2.154,0,1,0-2.918,0,3.954,3.954,0,0,0-2.489,3.668v.718h5.265Z" transform="translate(-10.166 -81.23)" fill="#666769"/>
    <path id="XMLID_2639_" d="M362.391,102.689v.718h5.265v-.718a3.954,3.954,0,0,0-2.489-3.668,2.154,2.154,0,1,0-2.918,0,3.983,3.983,0,0,0-.777.416A6.185,6.185,0,0,1,362.391,102.689Z" transform="translate(-344.171 -81.229)" fill="#666769"/>
    <path id="XMLID_2731_" d="M160.249,21.46h0a4.788,4.788,0,0,0-3.094-4.478,3.709,3.709,0,1,0-3.384,0,4.788,4.788,0,0,0-3.094,4.478v.718h9.572Z" transform="translate(-143.465)" fill="#666769"/>
  </g>
</svg>
