<svg id="rubbish-bin" xmlns="http://www.w3.org/2000/svg" width="11.724" height="15.731" viewBox="0 0 11.724 15.731">
  <g id="Group_470" data-name="Group 470">
    <path id="Path_717" data-name="Path 717" d="M74.571,110.61a.792.792,0,0,0,.791.759h7.39a.792.792,0,0,0,.791-.759l.528-11.142H74.043Zm6.158-8.374a.322.322,0,0,1,.322-.322h.514a.322.322,0,0,1,.322.322V108.6a.322.322,0,0,1-.322.322H81.05a.322.322,0,0,1-.322-.322Zm-2.25,0a.322.322,0,0,1,.322-.322h.514a.322.322,0,0,1,.322.322V108.6a.321.321,0,0,1-.322.322H78.8a.322.322,0,0,1-.322-.322v-6.365Zm-2.251,0a.322.322,0,0,1,.322-.322h.514a.322.322,0,0,1,.322.322V108.6a.322.322,0,0,1-.322.322h-.514a.322.322,0,0,1-.322-.322Z" transform="translate(-73.195 -95.637)" fill="#393939"/>
    <path id="Path_718" data-name="Path 718" d="M63.244.81H59.834V.166A.166.166,0,0,0,59.668,0h-3.58a.166.166,0,0,0-.166.166V.81h-3.41a.5.5,0,0,0-.5.5V2.868H63.74V1.307A.5.5,0,0,0,63.244.81Z" transform="translate(-52.016)" fill="#393939"/>
  </g>
</svg>
