<svg xmlns="http://www.w3.org/2000/svg" width="23.999" height="24" viewBox="0 0 23.999 24">
  <path id="settings_6_" data-name="settings (6)" d="M22.683,9.394,20.8,9.155a9.45,9.45,0,0,0-.569-1.374L21.4,6.286a1.486,1.486,0,0,0-.122-1.979L19.7,2.732A1.491,1.491,0,0,0,17.713,2.6L16.22,3.766A9.416,9.416,0,0,0,14.845,3.2L14.606,1.32A1.5,1.5,0,0,0,13.12,0H10.88A1.5,1.5,0,0,0,9.394,1.317L9.155,3.2a9.307,9.307,0,0,0-1.375.569L6.286,2.6a1.488,1.488,0,0,0-1.979.122L2.732,4.3A1.491,1.491,0,0,0,2.6,6.287L3.766,7.781A9.34,9.34,0,0,0,3.2,9.155L1.32,9.394A1.5,1.5,0,0,0,0,10.88v2.24a1.5,1.5,0,0,0,1.317,1.486l1.88.239a9.45,9.45,0,0,0,.569,1.374L2.6,17.714a1.486,1.486,0,0,0,.122,1.979L4.3,21.268a1.492,1.492,0,0,0,1.985.126l1.494-1.161a9.232,9.232,0,0,0,1.374.569l.239,1.876A1.5,1.5,0,0,0,10.88,24h2.24a1.5,1.5,0,0,0,1.486-1.317l.239-1.88a9.45,9.45,0,0,0,1.374-.569l1.5,1.161a1.486,1.486,0,0,0,1.979-.122L21.268,19.7a1.49,1.49,0,0,0,.127-1.985l-1.161-1.494a9.232,9.232,0,0,0,.569-1.374l1.876-.239A1.5,1.5,0,0,0,24,13.12V10.88a1.5,1.5,0,0,0-1.316-1.486ZM12,17a5,5,0,1,1,5-5,5.006,5.006,0,0,1-5,5Z" transform="translate(0)" fill="#666769"/>
</svg>
