<svg xmlns="http://www.w3.org/2000/svg" width="15.054" height="13.221" viewBox="0 0 15.054 13.221">
  <g id="sms-messages" transform="translate(0 0)">
    <path id="Path_867" data-name="Path 867" d="M12.14.006a2.9,2.9,0,0,1,2.915,2.915V7.315A2.9,2.9,0,0,1,12.14,10.23h-2.8A8.544,8.544,0,0,1,4.66,13.207a.411.411,0,0,1-.379-.706,4.468,4.468,0,0,0,.6-.638,5.337,5.337,0,0,0,.757-1.638H2.915A2.9,2.9,0,0,1,0,7.309V2.915A2.9,2.9,0,0,1,2.915,0Q7.527,0,12.14.006ZM1.876,5.817l1.012-.074a.967.967,0,0,0,.135.431.539.539,0,0,0,.47.24.476.476,0,0,0,.352-.123.388.388,0,0,0,.007-.561,1.279,1.279,0,0,0-.545-.23,2.175,2.175,0,0,1-1-.481,1.038,1.038,0,0,1-.3-.766,1.151,1.151,0,0,1,.154-.577,1.055,1.055,0,0,1,.463-.428,1.923,1.923,0,0,1,.849-.156,1.555,1.555,0,0,1,1.008.284,1.282,1.282,0,0,1,.413.9l-1,.069a.675.675,0,0,0-.168-.393.492.492,0,0,0-.354-.123.392.392,0,0,0-.281.091.3.3,0,0,0-.094.221.244.244,0,0,0,.076.17.828.828,0,0,0,.357.146,3.957,3.957,0,0,1,1,.352,1.114,1.114,0,0,1,.44.44A1.246,1.246,0,0,1,5,5.839a1.39,1.39,0,0,1-.184.7,1.212,1.212,0,0,1-.513.489,1.843,1.843,0,0,1-.831.167,1.561,1.561,0,0,1-1.219-.39,1.668,1.668,0,0,1-.381-.992Zm8.174,0,1.012-.074a.984.984,0,0,0,.134.431.539.539,0,0,0,.47.24.476.476,0,0,0,.352-.123.388.388,0,0,0,.007-.561,1.256,1.256,0,0,0-.545-.23,2.175,2.175,0,0,1-1-.481,1.038,1.038,0,0,1-.3-.766,1.151,1.151,0,0,1,.154-.577,1.062,1.062,0,0,1,.463-.428,1.923,1.923,0,0,1,.849-.156,1.555,1.555,0,0,1,1.008.284,1.282,1.282,0,0,1,.413.9l-1,.069a.675.675,0,0,0-.168-.393.492.492,0,0,0-.354-.123.392.392,0,0,0-.281.091.3.3,0,0,0-.094.221.244.244,0,0,0,.076.17.82.82,0,0,0,.357.146,3.957,3.957,0,0,1,1,.352,1.118,1.118,0,0,1,.441.44,1.257,1.257,0,0,1,.137.588,1.4,1.4,0,0,1-.184.7,1.2,1.2,0,0,1-.513.489,1.843,1.843,0,0,1-.831.167,1.561,1.561,0,0,1-1.219-.39,1.676,1.676,0,0,1-.381-.992ZM5.632,3.16H7.038l.537,2.416L8.113,3.16h1.4V7.13H8.641V4.1L7.967,7.13H7.176L6.5,4.1V7.13H5.632V3.16Z" transform="translate(0 0)" fill="#fff" fill-rule="evenodd"/>
  </g>
</svg>
