<svg xmlns="http://www.w3.org/2000/svg" width="26.635" height="23.473" viewBox="0 0 26.635 23.473">
  <path id="text-message" d="M11.141,20.321a9.547,9.547,0,0,0,10.7,1.827l3.318,1.3-1.1-2.614c3.684-2.954,3.034-7.011.312-9.776a9.546,9.546,0,0,1-1.055,3.008,11.107,11.107,0,0,1-3.049,3.467A13.586,13.586,0,0,1,16.008,19.7a15.265,15.265,0,0,1-4.867.628ZM6.832,11.7a.674.674,0,0,1,0-1.346h6.486a.674.674,0,0,1,0,1.346Zm0-3.732a.674.674,0,0,1,0-1.346H16.1a.674.674,0,0,1,0,1.346ZM11.752-.02h0a12.9,12.9,0,0,1,7.977,2.945A8.6,8.6,0,0,1,22.941,9.7h0a8.623,8.623,0,0,1-3.617,6.592,12.883,12.883,0,0,1-8.14,2.464,13.85,13.85,0,0,1-2.527-.306,13.106,13.106,0,0,1-2.139-.65L1.439,19.8l1.7-4.037a9.535,9.535,0,0,1-2.28-2.884A7.947,7.947,0,0,1-.011,9.037,8.648,8.648,0,0,1,3.608,2.451,12.943,12.943,0,0,1,11.748-.02ZM11.719,1.32h-.011a11.56,11.56,0,0,0-7.29,2.2A7.3,7.3,0,0,0,1.332,9.082a6.608,6.608,0,0,0,.726,3.188,8.4,8.4,0,0,0,2.3,2.765l.4.316-.85,2.031,2.618-1.029.254.108a11.937,11.937,0,0,0,2.148.678,12.682,12.682,0,0,0,2.295.28,11.535,11.535,0,0,0,7.295-2.193A7.3,7.3,0,0,0,21.6,9.672h0A7.294,7.294,0,0,0,18.858,3.95a11.482,11.482,0,0,0-7.134-2.624Z" transform="translate(0.014 0.025)" fill="#7b7b7b" fill-rule="evenodd"/>
</svg>
