<svg xmlns="http://www.w3.org/2000/svg" width="15.596" height="15.673" viewBox="0 0 15.596 15.673">
  <path id="whatsapp-color" d="M13.321,2.278A7.765,7.765,0,0,0,1.1,11.648L0,15.673l4.117-1.081a7.761,7.761,0,0,0,3.709.947h0a7.768,7.768,0,0,0,5.495-13.26h0ZM7.83,14.231a6.445,6.445,0,0,1-3.287-.9l-.237-.141-2.443.64.65-2.382L2.36,11.2a6.456,6.456,0,1,1,5.47,3.03Zm3.542-4.839c-.195-.1-1.148-.566-1.325-.631s-.307-.1-.439.1-.5.631-.615.762-.227.148-.419.049a5.321,5.321,0,0,1-1.56-.964A5.92,5.92,0,0,1,5.93,7.362c-.114-.195-.012-.3.086-.394s.195-.226.29-.34A1.277,1.277,0,0,0,6.5,6.3a.358.358,0,0,0-.016-.34c-.053-.1-.443-1.053-.6-1.442S5.57,4.2,5.45,4.187s-.242-.006-.37-.006a.715.715,0,0,0-.52.242,2.187,2.187,0,0,0-.677,1.619,3.78,3.78,0,0,0,.792,2.008,8.631,8.631,0,0,0,3.318,2.931c.463.2.824.318,1.1.411a2.676,2.676,0,0,0,1.222.076,2,2,0,0,0,1.311-.921,1.608,1.608,0,0,0,.114-.922c-.049-.077-.175-.134-.37-.233h0Z" fill="#fff" fill-rule="evenodd"/>
</svg>
